<svg width="50" height="50" viewBox="0 0 50 50" fill="none" xmlns="http://www.w3.org/2000/svg">
<path d="M44.8426 36.4833C44.5993 35.2917 43.8126 34.2267 42.6868 33.5608C40.601 32.3292 38.4468 31.1508 36.3635 30.0108L34.9326 29.2275C33.1243 28.235 31.8801 28.4192 31.1543 28.7492C30.4626 29.0642 29.556 29.8225 29.1576 31.6492C29.1519 31.68 29.1477 31.7112 29.1451 31.7425C29.1025 31.9116 29.0185 32.0675 28.9007 32.1961C28.7829 32.3247 28.6349 32.422 28.4701 32.4792C28.0101 32.6442 27.4668 32.5358 27.0201 32.1858C23.6026 29.5062 20.5136 26.4321 17.8176 23.0275C17.471 22.5917 17.3626 22.0583 17.5276 21.6017C17.6043 21.3875 17.8135 21.0125 18.3918 20.8883H18.3935C18.421 20.885 18.4501 20.88 18.4768 20.8742C20.3293 20.465 21.0651 19.5142 21.3576 18.7892C21.6868 17.9725 21.7976 16.5758 20.456 14.5608C19.446 13.05 18.6026 11.3992 17.7868 9.8025C17.4151 9.07583 17.0451 8.35 16.6576 7.635C15.891 6.21416 14.8693 5.33 13.701 5.07666C12.6443 4.84583 11.5293 5.15166 10.471 5.95166C9.42263 6.7525 8.30846 7.63333 7.26013 8.645C5.00013 10.8458 4.48429 13.6283 5.76596 16.6925C11.211 29.7117 20.5893 39.0233 33.641 44.3692C34.6651 44.7892 35.6585 44.9975 36.6093 44.9975C38.3276 44.9975 39.9068 44.3158 41.2685 42.9667C42.381 41.8725 43.3551 40.6125 44.1876 39.5083C44.5044 39.079 44.7266 38.5875 44.8397 38.0661C44.9527 37.5447 44.9532 37.0053 44.8426 36.4833ZM42.851 38.5142C42.061 39.5617 41.131 40.7642 40.0976 41.7808C38.4468 43.4158 36.5426 43.76 34.2735 42.8267C21.646 37.6542 12.5718 28.645 7.30429 16.0492C6.27929 13.6017 6.64596 11.57 8.42013 9.84166C9.40429 8.89166 10.4735 8.0475 11.481 7.27833C12.0151 6.87333 12.5251 6.66916 13.0035 6.66916C13.1201 6.66916 13.2351 6.68166 13.3485 6.70583C14.0251 6.85333 14.6635 7.4475 15.1918 8.42666C15.5726 9.13083 15.9368 9.845 16.3026 10.56C17.1401 12.2 18.006 13.895 19.0693 15.485C19.8018 16.585 20.0651 17.5367 19.8118 18.1658C19.566 18.7775 18.8226 19.0783 18.2076 19.2267C18.1362 19.2291 18.0658 19.2438 17.9993 19.27C17.5348 19.3612 17.1022 19.5722 16.7444 19.8821C16.3866 20.192 16.1159 20.59 15.9593 21.0367C15.5976 22.0408 15.8043 23.1725 16.5118 24.0633C19.2891 27.57 22.4708 30.7364 25.991 33.4967C26.8935 34.205 28.031 34.4092 29.036 34.0467C29.4769 33.8913 29.8702 33.6243 30.1773 33.2718C30.4844 32.9192 30.695 32.4931 30.7885 32.035C30.7952 32.002 30.8 31.9686 30.8026 31.935C30.9468 31.31 31.2443 30.54 31.8443 30.2658C32.5285 29.9558 33.466 30.3242 34.131 30.6883L35.5635 31.4733C37.6343 32.6067 39.7768 33.7783 41.8385 34.9958C42.5601 35.4225 43.0601 36.0867 43.2101 36.8175C43.3351 37.4258 43.2051 38.0308 42.851 38.5142Z" fill="url(#paint0_linear_305_2541)"/>
<defs>
<linearGradient id="paint0_linear_305_2541" x1="5.07812" y1="24.9996" x2="44.9254" y2="24.9996" gradientUnits="userSpaceOnUse">
<stop stop-color="#80A87B"/>
<stop offset="1" stop-color="#A1B16A"/>
</linearGradient>
</defs>
</svg>
