<svg width="50" height="50" viewBox="0 0 50 50" fill="none" xmlns="http://www.w3.org/2000/svg">
<path d="M37.162 42.4585C36.5992 42.4585 35.9818 42.2737 35.3139 41.9055L20.1897 30.7391C20.1065 30.6772 20.038 30.5976 19.9893 30.5061C19.9405 30.4146 19.9125 30.3134 19.9074 30.2098C19.9023 30.1063 19.9202 30.0028 19.9598 29.907C19.9994 29.8112 20.0598 29.7253 20.1365 29.6555L38.051 13.5344C38.1889 13.4102 38.3705 13.3459 38.5559 13.3556C38.7413 13.3653 38.9152 13.4483 39.0394 13.5862C39.1636 13.7241 39.2279 13.9058 39.2182 14.0911C39.2085 14.2765 39.1255 14.4504 38.9876 14.5746L21.7115 30.1231L36.0672 40.7295C36.4466 40.9325 37.0878 41.1901 37.5442 40.9787C38.009 40.7659 38.2386 40.0869 38.3506 39.5549L44.4756 10.691C44.7136 9.73758 44.5988 8.97037 44.1746 8.61757C43.8512 8.34877 43.3696 8.32917 42.8488 8.56437L6.8462 22.4496C5.7416 22.8934 5.3944 23.3498 5.4 23.501C5.4042 23.6005 5.6422 23.8749 6.352 24.0919L15.277 26.8779L25.0757 20.6954C25.2323 20.6059 25.4174 20.5803 25.5925 20.624C25.7675 20.6676 25.9189 20.7771 26.0151 20.9297C26.1114 21.0823 26.145 21.2661 26.109 21.4429C26.073 21.6196 25.9701 21.7757 25.8219 21.8784L15.7502 28.2331C15.6644 28.287 15.5679 28.3218 15.4674 28.3351C15.3669 28.3484 15.2648 28.3398 15.1678 28.3101L5.939 25.4289C4.30099 24.9277 4.02099 24.0429 4.00139 23.5598C3.97339 22.8976 4.35559 21.94 6.3352 21.1476L42.3084 7.27637C43.2842 6.83116 44.3314 6.92636 45.072 7.54377C45.9302 8.25917 46.2102 9.52198 45.8406 11.0074L39.7212 39.8447C39.4636 41.0739 38.9288 41.8845 38.1294 42.2513C37.8259 42.3903 37.4957 42.4611 37.162 42.4585Z" fill="url(#paint0_linear_305_2550)"/>
<path d="M37.162 42.4585C36.5992 42.4585 35.9818 42.2737 35.3139 41.9055L25.9059 34.9629C25.8292 34.9094 25.764 34.8411 25.7141 34.7619C25.6642 34.6828 25.6307 34.5945 25.6156 34.5022C25.6004 34.4099 25.6039 34.3155 25.6258 34.2245C25.6478 34.1336 25.6877 34.048 25.7433 33.9728C25.7989 33.8975 25.869 33.8342 25.9494 33.7865C26.0299 33.7388 26.1191 33.7078 26.2118 33.6951C26.3045 33.6825 26.3987 33.6886 26.489 33.713C26.5793 33.7374 26.6638 33.7797 26.7375 33.8373L36.0672 40.7295C36.4466 40.9325 37.0878 41.1901 37.5442 40.9787C38.009 40.7659 38.2386 40.0869 38.3506 39.5549L44.4756 10.691C44.7136 9.73758 44.5988 8.97037 44.1746 8.61757C43.8512 8.34877 43.3696 8.32917 42.8488 8.56437L6.8462 22.4496C5.7416 22.8934 5.3944 23.3498 5.4 23.501C5.4042 23.6005 5.6422 23.8749 6.352 24.0919L15.5836 26.9731C15.6926 27.0073 15.7915 27.0675 15.872 27.1484C15.9525 27.2294 16.0121 27.3287 16.0456 27.4379L19.2195 37.8833C19.3049 38.1171 19.3707 38.3495 19.4281 38.5511C19.4729 38.7107 19.5289 38.9095 19.5667 38.9683C19.5611 38.9613 19.6731 38.9949 19.9713 38.9963C20.5971 38.9963 20.8351 38.7625 21.3111 38.2991L23.6351 36.0395C23.7686 35.9123 23.947 35.8429 24.1314 35.8465C24.3158 35.85 24.4913 35.9262 24.6198 36.0584C24.7484 36.1907 24.8196 36.3683 24.8179 36.5527C24.8162 36.7371 24.7418 36.9134 24.6109 37.0433L22.3261 39.2623C21.7633 39.8125 21.1669 40.3949 19.9713 40.3949C18.5993 40.3949 18.3221 39.7873 18.0799 38.9305C18.0309 38.7569 17.9749 38.5567 17.8909 38.3257L14.8136 28.1995L5.939 25.4289C4.30099 24.9277 4.02099 24.0429 4.00139 23.5598C3.97339 22.8976 4.35559 21.94 6.3352 21.1476L42.3084 7.27637C43.2842 6.83116 44.3314 6.92636 45.072 7.54377C45.9302 8.25917 46.2102 9.52198 45.8406 11.0074L39.7212 39.8447C39.4636 41.0739 38.9288 41.8845 38.1294 42.2513C37.8259 42.3903 37.4957 42.4611 37.162 42.4585Z" fill="url(#paint1_linear_305_2550)"/>
<path d="M28.4996 19.8303C28.4996 20.2153 28.1846 20.5303 27.7996 20.5303C27.6141 20.5299 27.4362 20.456 27.305 20.3248C27.1738 20.1936 27.1 20.0158 27.0996 19.8303C27.0996 19.4453 27.4146 19.1302 27.7996 19.1302C28.1846 19.1302 28.4996 19.4453 28.4996 19.8303Z" fill="url(#paint2_linear_305_2550)"/>
<defs>
<linearGradient id="paint0_linear_305_2550" x1="4" y1="24.7293" x2="46" y2="24.7293" gradientUnits="userSpaceOnUse">
<stop stop-color="#80A87B"/>
<stop offset="1" stop-color="#A1B16A"/>
</linearGradient>
<linearGradient id="paint1_linear_305_2550" x1="4" y1="24.7293" x2="46" y2="24.7293" gradientUnits="userSpaceOnUse">
<stop stop-color="#80A87B"/>
<stop offset="1" stop-color="#A1B16A"/>
</linearGradient>
<linearGradient id="paint2_linear_305_2550" x1="27.0996" y1="19.8303" x2="28.4996" y2="19.8303" gradientUnits="userSpaceOnUse">
<stop stop-color="#80A87B"/>
<stop offset="1" stop-color="#A1B16A"/>
</linearGradient>
</defs>
</svg>
