<svg width="487" height="331" viewBox="0 0 487 331" fill="none" xmlns="http://www.w3.org/2000/svg">
<path d="M161.03 141.316C161.03 141.313 161.029 141.31 161.026 141.308C152.537 136.462 141.72 139.412 136.86 147.901C135.36 150.521 134.56 153.491 134.53 156.511V291.521C134.46 297.851 137.82 303.721 143.32 306.861C148.8 310.021 155.55 310.021 161.03 306.861L277.77 239.361C286.24 234.471 289.15 223.641 284.26 215.171C282.7 212.471 280.47 210.241 277.77 208.681L161.035 141.323C161.032 141.322 161.03 141.319 161.03 141.316Z" stroke="black" stroke-opacity="0.75" stroke-width="2" stroke-miterlimit="10"/>
<path d="M475.26 1.00101H276.37C270.52 0.921011 265.71 5.60101 265.63 11.461C265.63 11.551 265.63 11.651 265.63 11.741V64.921C265.63 70.4439 261.153 74.921 255.63 74.921H88.365C84.5128 74.921 81.39 78.0438 81.39 81.896C81.39 85.7482 84.5128 88.871 88.365 88.871H255.63C261.153 88.871 265.63 93.3482 265.63 98.871V148.421C265.63 154.271 270.37 159.021 276.23 159.021C276.28 159.021 276.32 159.021 276.37 159.021H415.19C420.713 159.021 425.19 163.498 425.19 169.021V349.161C425.19 354.684 420.713 359.161 415.19 359.161H-2.05001C-7.57285 359.161 -12.05 354.684 -12.05 349.161V98.871C-12.05 93.3482 -7.57285 88.871 -2.05 88.871H48.895C52.7472 88.871 55.87 85.7482 55.87 81.896C55.87 78.0438 52.7472 74.921 48.895 74.921H-15.12C-21.13 74.921 -26 79.791 -26 85.801V362.231C-26 368.241 -21.13 373.111 -15.12 373.111H428.26C434.27 373.111 439.14 368.241 439.14 362.231V169.021C439.14 163.498 443.617 159.021 449.14 159.021H475.26C481.11 159.101 485.92 154.411 486 148.561C486 148.511 486 148.471 486 148.421V11.741C486.08 5.89101 481.4 1.08101 475.54 1.00101C475.45 1.00101 475.35 1.00101 475.26 1.00101ZM279.577 141.311C279.579 141.311 279.581 141.31 279.582 141.309L340.25 83.571C342.1 81.741 344.63 80.781 347.22 80.921C349.82 81.071 352.24 82.281 353.91 84.271L391.815 128.581C397.365 135.069 392.755 145.081 384.216 145.081H281.455C280.414 145.081 279.57 144.237 279.57 143.196V141.318C279.57 141.314 279.573 141.311 279.577 141.311ZM424.34 145.081C424.344 145.081 424.346 145.076 424.343 145.073L388.252 102.909C384.796 98.8727 385.101 92.8384 388.946 89.1707L415.28 64.051C417.97 61.461 421.6 60.101 425.32 60.281C429.03 60.381 432.5 62.121 434.8 65.021L469.628 105.591C471.184 107.404 472.04 109.715 472.04 112.105V135.081C472.04 140.604 467.563 145.081 462.04 145.081H424.34ZM411.525 426.946C411.522 426.949 411.517 426.951 411.513 426.951H357.265C353.413 426.951 350.29 430.074 350.29 433.926C350.29 437.778 353.413 440.901 357.265 440.901H411.52C419.07 440.901 425.19 447.021 425.19 454.571C425.19 462.141 419.09 468.301 411.52 468.381H113.95C107.29 468.381 102.504 461.914 102.586 455.255C102.591 454.844 102.591 454.434 102.586 454.024C102.502 447.366 107.288 440.901 113.946 440.901H317.935C321.787 440.901 324.91 437.778 324.91 433.926C324.91 430.074 321.787 426.951 317.935 426.951H98.6021C95.414 426.951 92.4678 425.381 90.3189 423.026C74.4899 405.678 47.8 402.692 28.43 416.881C25.9452 418.701 23.6478 420.763 21.5729 423.031C19.4215 425.383 16.4765 426.951 13.2891 426.951H1.62C-5.7 426.971 -12.72 429.871 -17.91 435.041C-23.05 440.241 -25.95 447.251 -26 454.571C-26 469.841 -13.66 482.251 1.62 482.321H13.3134C16.4872 482.321 19.4224 483.877 21.5691 486.215C37.5121 503.576 64.3095 506.47 83.7 492.151C86.0909 490.385 88.307 488.399 90.3146 486.22C92.4688 483.882 95.4072 482.321 98.5865 482.321H411.53C426.78 482.321 439.15 469.961 439.15 454.701C439.15 454.651 439.15 454.611 439.15 454.561C439.15 439.313 426.794 426.945 411.537 426.941C411.533 426.941 411.528 426.943 411.525 426.946ZM1.615 468.376C1.61685 468.374 1.6155 468.371 1.61289 468.371C-5.93384 468.367 -12.05 462.249 -12.05 454.701C-12.05 454.651 -12.05 454.611 -12.05 454.561C-12.05 450.941 -10.6 447.461 -8.01 444.941C-5.5 442.321 -2.02 440.851 1.61 440.901C6.38284 440.901 9.78788 445.564 9.3406 450.316C8.87803 455.23 9.2056 460.2 10.3233 465.036C10.7107 466.712 9.48329 468.381 7.76335 468.381H1.61708C1.61446 468.381 1.61315 468.378 1.615 468.376Z" stroke="white" stroke-width="2" stroke-miterlimit="10"/>
</svg>
