<svg width="100" height="100" viewBox="0 0 100 100" fill="none" xmlns="http://www.w3.org/2000/svg">
<path d="M32.5833 20.8334V8.33337C32.5833 7.91916 32.919 7.58337 33.3333 7.58337C33.7475 7.58337 34.0833 7.91916 34.0833 8.33337V20.8334C34.0833 21.2476 33.7475 21.5834 33.3333 21.5834C32.919 21.5834 32.5833 21.2476 32.5833 20.8334Z" fill="#292D32"/>
<path d="M65.9167 20.8334V8.33337C65.9167 7.91916 66.2525 7.58337 66.6667 7.58337C67.081 7.58337 67.4167 7.91916 67.4167 8.33337V20.8334C67.4167 21.2476 67.081 21.5834 66.6667 21.5834C66.2525 21.5834 65.9167 21.2476 65.9167 20.8334Z" fill="#292D32"/>
<path d="M11.75 70.8334V52.3754C11.75 51.9612 12.0858 51.6254 12.5 51.6254C12.9142 51.6254 13.25 51.9612 13.25 52.3754V70.8334C13.25 76.9682 14.7836 81.9663 17.9971 85.4271C21.2013 88.8779 26.1845 90.9163 33.333 90.9164H59.0293C57.3044 89.3902 55.8181 87.5914 54.6084 85.597V85.5961C52.539 82.2311 51.333 78.1809 51.333 73.9584C51.333 66.8505 54.6076 60.4254 59.8281 56.3265C63.7071 53.1836 68.6612 51.3335 73.958 51.3334C78.7111 51.3334 83.1216 52.7899 86.75 55.3002V35.4164C86.7499 29.2816 85.2165 24.2834 82.0029 20.8226C78.7987 17.3719 73.8155 15.3334 66.667 15.3334H33.333C26.1845 15.3334 21.2013 17.3719 17.9971 20.8226C14.7835 24.2834 13.2501 29.2816 13.25 35.4164C13.25 35.8306 12.9142 36.1664 12.5 36.1664C12.0858 36.1664 11.75 35.8306 11.75 35.4164C11.7501 29.0516 13.3413 23.6329 16.8984 19.8021C20.4649 15.9614 25.8986 13.8334 33.333 13.8334H66.667C74.1014 13.8334 79.5351 15.9614 83.1016 19.8021C86.6587 23.6329 88.2499 29.0516 88.25 35.4164V56.7914C88.25 57.0795 88.0848 57.3422 87.8252 57.4672C87.5656 57.5921 87.2574 57.5579 87.0322 57.3783C83.4539 54.5237 78.9094 52.8334 73.958 52.8334C69.0092 52.8335 64.3832 54.5636 60.7637 57.4994L60.7549 57.5062C55.8922 61.324 52.833 67.3163 52.833 73.9584C52.833 77.654 53.8242 81.2079 55.5371 84.2201L55.8887 84.8158L55.8916 84.8197C57.3842 87.2804 59.3164 89.4121 61.6045 91.058C61.8688 91.2481 61.9807 91.587 61.8809 91.8969C61.781 92.2066 61.4924 92.4162 61.167 92.4164H33.333C25.8986 92.4163 20.4649 90.2885 16.8984 86.4476C13.3413 82.6168 11.75 77.1983 11.75 70.8334Z" fill="#292D32"/>
<path d="M54.1667 45.0834C54.581 45.0834 54.9167 45.4192 54.9167 45.8334C54.9167 46.2476 54.581 46.5834 54.1667 46.5834H29.1667C28.7525 46.5834 28.4167 46.2476 28.4167 45.8334C28.4167 45.4192 28.7525 45.0834 29.1667 45.0834H54.1667Z" fill="url(#paint0_linear_81_110)"/>
<path d="M40.0837 65.9166C40.4978 65.9168 40.8337 66.2525 40.8337 66.6666C40.8337 67.0807 40.4978 67.4164 40.0837 67.4166H29.1667C28.7525 67.4166 28.4167 67.0808 28.4167 66.6666C28.4167 66.2524 28.7525 65.9166 29.1667 65.9166H40.0837Z" fill="url(#paint1_linear_81_110)"/>
<path d="M95.0833 73.9584C95.0833 67.2389 91.9459 61.2446 87.0364 57.3812L87.0325 57.3783C83.4541 54.5237 78.9097 52.8334 73.9583 52.8334C69.0093 52.8334 64.3835 54.5635 60.7639 57.4994L60.7551 57.5062C55.8924 61.324 52.8333 67.3163 52.8333 73.9584C52.8333 77.6539 53.8235 81.208 55.5364 84.2201L55.8889 84.8158L55.8909 84.8197C57.2902 87.1267 59.0767 89.1441 61.1799 90.7435L61.6047 91.058L61.6096 91.0619C65.0679 93.5953 69.3303 95.0834 73.9583 95.0834C79.3102 95.0834 84.134 93.1129 87.8342 89.8148C87.8408 89.809 87.848 89.8038 87.8547 89.7982C89.4907 88.4415 90.8932 86.7601 92.0188 84.8304L92.0276 84.8158C93.9562 81.6818 95.0833 77.9004 95.0833 73.9584ZM96.5833 73.9584C96.5833 78.1766 95.3793 82.2224 93.3137 85.5853L93.3147 85.5863C92.107 87.6567 90.5924 89.4759 88.8118 90.9525C84.848 94.477 79.6799 96.5834 73.9583 96.5834C69.0028 96.5834 64.4312 94.9884 60.7229 92.2719V92.2709C58.2637 90.5007 56.1981 88.2175 54.6086 85.597V85.5961C52.5392 82.2311 51.3333 78.1809 51.3333 73.9584C51.3333 66.8505 54.6077 60.4254 59.8284 56.3265C63.7074 53.1837 68.6614 51.3334 73.9583 51.3334C79.2552 51.3334 84.1263 53.1422 87.9641 56.2025L88.4514 56.597C93.4278 60.7414 96.5833 66.9863 96.5833 73.9584Z" fill="#292D32"/>
<path d="M73.2087 84.3746C73.2086 79.039 68.8774 74.7086 63.5417 74.7086C63.1276 74.7086 62.7919 74.3727 62.7917 73.9586C62.7917 73.5705 63.0866 73.2512 63.4646 73.2125L63.5417 73.2086L64.0388 73.1959C69.1439 72.9369 73.2087 68.7107 73.2087 63.5416C73.2087 63.1274 73.5445 62.7916 73.9587 62.7916C74.3728 62.7918 74.7087 63.1275 74.7087 63.5416C74.7087 68.8773 79.0391 73.2084 84.3748 73.2086C84.789 73.2086 85.1248 73.5444 85.1248 73.9586C85.1246 74.3727 84.7889 74.7086 84.3748 74.7086C79.2059 74.7088 74.9806 78.7727 74.7214 83.8776L74.7087 84.3746L74.7048 84.4518C74.6664 84.8298 74.3469 85.1245 73.9587 85.1246C73.5445 85.1246 73.2087 84.7888 73.2087 84.3746ZM73.9578 67.5612C72.8249 70.4925 70.4926 72.8248 67.5613 73.9576C70.4924 75.0903 72.8247 77.4232 73.9578 80.3541C75.0907 77.4234 77.4235 75.0905 80.3542 73.9576C77.4233 72.8245 75.0904 70.4923 73.9578 67.5612Z" fill="url(#paint2_linear_81_110)"/>
<defs>
<linearGradient id="paint0_linear_81_110" x1="28.4167" y1="45.8334" x2="54.9167" y2="45.8334" gradientUnits="userSpaceOnUse">
<stop stop-color="#80A87B"/>
<stop offset="1" stop-color="#A1B16A"/>
</linearGradient>
<linearGradient id="paint1_linear_81_110" x1="28.4167" y1="66.6666" x2="40.8337" y2="66.6666" gradientUnits="userSpaceOnUse">
<stop stop-color="#80A87B"/>
<stop offset="1" stop-color="#A1B16A"/>
</linearGradient>
<linearGradient id="paint2_linear_81_110" x1="62.7917" y1="73.9581" x2="85.1248" y2="73.9581" gradientUnits="userSpaceOnUse">
<stop stop-color="#80A87B"/>
<stop offset="1" stop-color="#A1B16A"/>
</linearGradient>
</defs>
</svg>
