<svg width="100" height="100" viewBox="0 0 100 100" fill="none" xmlns="http://www.w3.org/2000/svg">
<path d="M50.0576 28.573C52.4381 28.5732 54.5963 30.3693 56.1298 33.4578L61.6289 44.4568C61.9371 45.0731 62.5334 45.7381 63.2695 46.283C63.9141 46.7601 64.6096 47.1034 65.2265 47.2498L65.4863 47.2996L65.499 47.3015L75.457 48.9685H75.4589C78.7727 49.5316 81.0786 51.0523 81.8017 53.2908C82.5255 55.5318 81.5385 58.1057 79.1552 60.489L71.4052 68.239C70.8715 68.7728 70.4143 69.6078 70.1425 70.5466C69.871 71.4851 69.8082 72.4467 69.9814 73.2087C70.0732 73.6127 69.8199 74.0144 69.416 74.1062C69.0122 74.198 68.6105 73.9454 68.5185 73.5417C68.2751 72.4706 68.379 71.2441 68.7011 70.1306C69.0232 69.0177 69.5869 67.9363 70.3447 67.1785L78.0947 59.4285C80.2945 57.2287 80.8488 55.219 80.375 53.7517C79.9002 52.282 78.2689 50.9683 75.208 50.448L65.2509 48.781C64.2648 48.6301 63.2403 48.1272 62.3769 47.488C61.5089 46.8455 60.7289 46.0104 60.2871 45.1267L54.7871 34.1267L54.7861 34.1257C53.3615 31.2566 51.6037 30.0732 50.0576 30.073C48.5096 30.073 46.7404 31.2579 45.2949 34.1287L39.7959 45.1267C39.3526 46.0133 38.5707 46.8384 37.7041 47.4744C36.8366 48.1108 35.8143 48.609 34.8378 48.78L24.874 50.448L24.8711 50.449C21.8137 50.9485 20.1839 52.2612 19.7089 53.7351C19.2342 55.209 19.7895 57.2297 21.9882 59.4285L29.7382 67.1785L29.747 67.1863C30.4982 67.9617 31.0599 69.0493 31.3818 70.1619C31.7029 71.272 31.8077 72.4883 31.5634 73.5417L31.5644 73.5427L29.3554 83.1677C28.4956 86.8939 29.1521 89.1044 30.3955 90.0144C31.6395 90.9246 33.9474 90.8825 37.2441 88.9373L46.5752 83.3972L46.5791 83.3943C47.5742 82.8117 48.8281 82.5417 50.042 82.5417C51.1799 82.5418 52.3524 82.7791 53.3144 83.2888L53.5039 83.3943L53.5078 83.3972L62.8408 88.9382L62.8437 88.9402C64.4466 89.9019 65.8488 90.3974 67.0127 90.5476C67.4233 90.6007 67.713 90.9768 67.6601 91.3875C67.6071 91.7983 67.2311 92.0889 66.8203 92.0359C65.4016 91.8528 63.8044 91.2654 62.0752 90.2283L52.7461 84.6882C52.033 84.2708 51.0571 84.0418 50.042 84.0417C49.0266 84.0417 48.05 84.2718 47.3369 84.6892L47.3359 84.6882L38.0078 90.2283L38.0058 90.2292C34.5942 92.2423 31.5261 92.7006 29.5097 91.2253C27.4933 89.7499 27.0039 86.6889 27.8935 82.8328L30.1025 73.2078V73.2048C30.2739 72.4675 30.2125 71.5185 29.9404 70.5779C29.6699 69.6434 29.2145 68.7969 28.6777 68.239L20.9277 60.489C18.5431 58.1044 17.5581 55.52 18.2812 53.2751C19.0042 51.0312 21.3102 49.511 24.6259 48.9685L34.5791 47.3025L34.8427 47.2458C35.4703 47.0855 36.1718 46.7383 36.8164 46.2654C37.5537 45.7244 38.1473 45.0701 38.4541 44.4568L43.955 33.4548C45.5095 30.3675 47.6785 28.573 50.0576 28.573Z" fill="black"/>
<path d="M24.25 37.5004L24.25 8.33337C24.25 7.91916 24.5858 7.58337 25 7.58337C25.4142 7.58337 25.75 7.91916 25.75 8.33337L25.75 37.5004C25.7498 37.9144 25.4141 38.2504 25 38.2504C24.5859 38.2504 24.2502 37.9144 24.25 37.5004Z" fill="url(#paint0_linear_79_239)"/>
<path d="M74.25 37.5004V8.33337C74.25 7.91916 74.5858 7.58337 75 7.58337C75.4142 7.58337 75.75 7.91916 75.75 8.33337V37.5004C75.7498 37.9144 75.4141 38.2504 75 38.2504C74.5859 38.2504 74.2502 37.9144 74.25 37.5004Z" fill="url(#paint1_linear_79_239)"/>
<path d="M49.25 16.6664V8.33337C49.25 7.91916 49.5858 7.58337 50 7.58337C50.4142 7.58337 50.75 7.91916 50.75 8.33337V16.6664C50.75 17.0806 50.4142 17.4164 50 17.4164C49.5858 17.4164 49.25 17.0806 49.25 16.6664Z" fill="url(#paint2_linear_79_239)"/>
<defs>
<linearGradient id="paint0_linear_79_239" x1="24.25" y1="22.9169" x2="25.75" y2="22.9169" gradientUnits="userSpaceOnUse">
<stop stop-color="#80A87B"/>
<stop offset="1" stop-color="#A1B16A"/>
</linearGradient>
<linearGradient id="paint1_linear_79_239" x1="74.25" y1="22.9169" x2="75.75" y2="22.9169" gradientUnits="userSpaceOnUse">
<stop stop-color="#80A87B"/>
<stop offset="1" stop-color="#A1B16A"/>
</linearGradient>
<linearGradient id="paint2_linear_79_239" x1="49.25" y1="12.4999" x2="50.75" y2="12.4999" gradientUnits="userSpaceOnUse">
<stop stop-color="#80A87B"/>
<stop offset="1" stop-color="#A1B16A"/>
</linearGradient>
</defs>
</svg>
