<svg width="50" height="50" viewBox="0 0 50 50" fill="none" xmlns="http://www.w3.org/2000/svg">
<path d="M40.9152 38.3633H9.08555C8.33228 38.3623 7.61015 38.0626 7.07751 37.5299C6.54487 36.9973 6.24517 36.2752 6.24414 35.5219V14.2906C6.24497 13.5871 6.52487 12.9126 7.02241 12.4152C7.51996 11.9178 8.19451 11.6381 8.89805 11.6375H41.102C41.8054 11.6383 42.4797 11.9181 42.9771 12.4155C43.4745 12.9129 43.7542 13.5872 43.7551 14.2906V35.5227C43.7542 36.2757 43.4548 36.9976 42.9224 37.5301C42.3901 38.0626 41.6682 38.3623 40.9152 38.3633ZM8.89883 13.1992C8.29648 13.1992 7.80742 13.6883 7.80742 14.2899V35.5219C7.80742 36.2266 8.38086 36.8008 9.08633 36.8008H40.916C41.6207 36.8008 42.1941 36.2274 42.1941 35.5219V14.2906C42.1941 13.6883 41.7051 13.2 41.1035 13.2L8.89883 13.1992Z" fill="url(#paint0_linear_305_2545)"/>
<path d="M24.9997 28.5204C24.1828 28.5223 23.3931 28.2271 22.7778 27.6899L10.1059 16.6016C9.95114 16.4649 9.85677 16.2725 9.84343 16.0664C9.83009 15.8604 9.89888 15.6574 10.0348 15.5019C10.1706 15.3464 10.3625 15.2511 10.5685 15.2366C10.7745 15.2222 10.9779 15.29 11.1341 15.425L23.8067 26.5125C24.1376 26.8005 24.5614 26.959 25.0001 26.959C25.4387 26.959 25.8625 26.8005 26.1934 26.5125L38.8653 15.425C39.0215 15.29 39.2248 15.2222 39.4308 15.2366C39.6368 15.2511 39.8287 15.3464 39.9646 15.5019C40.1005 15.6574 40.1693 15.8604 40.1559 16.0664C40.1426 16.2725 40.0482 16.4649 39.8934 16.6016L27.2216 27.6891C26.6061 28.2263 25.8166 28.5217 24.9997 28.5204Z" fill="url(#paint1_linear_305_2545)"/>
<defs>
<linearGradient id="paint0_linear_305_2545" x1="6.24414" y1="25.0004" x2="43.7551" y2="25.0004" gradientUnits="userSpaceOnUse">
<stop stop-color="#80A87B"/>
<stop offset="1" stop-color="#A1B16A"/>
</linearGradient>
<linearGradient id="paint1_linear_305_2545" x1="9.8418" y1="21.8776" x2="40.1576" y2="21.8776" gradientUnits="userSpaceOnUse">
<stop stop-color="#80A87B"/>
<stop offset="1" stop-color="#A1B16A"/>
</linearGradient>
</defs>
</svg>
