<svg width="408" height="247" viewBox="0 0 408 247" fill="none" xmlns="http://www.w3.org/2000/svg">
<path d="M180.98 419.01C287.035 419.01 373.01 333.035 373.01 226.98C373.01 120.925 287.035 34.95 180.98 34.95C74.925 34.95 -11.0498 120.925 -11.0498 226.98C-11.0498 333.035 74.925 419.01 180.98 419.01Z" stroke="white" stroke-width="2" stroke-miterlimit="10"/>
<path d="M180.98 452.96C305.785 452.96 406.96 351.785 406.96 226.98C406.96 102.175 305.785 1 180.98 1C56.1747 1 -45 102.175 -45 226.98C-45 351.785 56.1747 452.96 180.98 452.96Z" stroke="white" stroke-width="2" stroke-miterlimit="10"/>
<path d="M187.07 122.99L207.37 185.48C209.5 192.04 215.62 196.48 222.52 196.48H288.23C294.43 196.48 297.01 204.41 291.99 208.06L238.83 246.68C233.25 250.74 230.91 257.92 233.04 264.48L253.34 326.97C255.26 332.87 248.51 337.77 243.49 334.12L190.33 295.5C184.75 291.44 177.19 291.44 171.61 295.5L118.45 334.12C113.44 337.76 106.69 332.86 108.6 326.97L128.9 264.48C131.03 257.92 128.7 250.73 123.11 246.68L69.9498 208.06C64.9398 204.42 67.5098 196.48 73.7098 196.48H139.42C146.32 196.48 152.43 192.04 154.57 185.48L174.87 122.99C176.79 117.09 185.13 117.09 187.04 122.99H187.07Z" stroke="black" stroke-opacity="0.75" stroke-width="2" stroke-linecap="round" stroke-linejoin="round"/>
</svg>
