<svg width="524" height="360" viewBox="0 0 524 360" fill="none" xmlns="http://www.w3.org/2000/svg">
<path d="M-74.6942 269.181H-57.5051C-55.7546 273.945 -53.7541 278.736 -51.5297 283.474L-63.7305 295.675C-76.9448 308.363 -76.9448 331.159 -63.7305 343.846L-30.4449 377.132C-17.5728 390.004 4.86767 390.004 17.7397 377.132L29.9273 364.931C34.6655 367.169 39.43 369.169 44.2208 370.92V388.109C44.234 406.917 59.4883 422.158 78.2962 422.184H125.362C144.17 422.171 159.411 406.917 159.437 388.109V370.92C164.215 369.156 168.993 367.169 173.731 364.931L185.919 377.145C198.791 390.017 221.231 390.017 234.103 377.145L267.376 343.846C280.603 331.159 280.603 308.363 267.376 295.675L255.188 283.461C257.425 278.749 259.426 273.958 261.163 269.181H278.352C297.16 269.154 312.388 253.926 312.415 235.118V188.053C312.401 169.245 297.16 154.004 278.352 153.977H261.163C259.387 149.134 257.386 144.369 255.188 139.697L267.389 127.483C280.603 114.808 280.603 91.9861 267.389 79.3115L234.103 46.0258C221.231 33.1538 198.791 33.1538 185.919 46.0258L173.718 58.2266C169.045 56.0155 164.294 54.028 159.437 52.2512V35.0622C159.411 16.2543 144.17 1.01316 125.362 1H78.2962C59.4883 1.01316 44.2472 16.2543 44.2208 35.0622V52.2512C39.4432 54.0017 34.6655 55.9891 29.9405 58.2266L17.7265 46.0258C4.86767 33.1538 -17.5728 33.1538 -30.4449 46.0258L-63.7174 79.3115C-76.9448 91.9861 -76.9448 114.821 -63.7174 127.483L-51.5297 139.697C-53.7672 144.422 -55.7678 149.2 -57.5051 153.977H-74.6942C-93.5021 154.004 -108.73 169.231 -108.756 188.039V235.118C-108.73 253.926 -93.5021 269.154 -74.6942 269.181Z" stroke="white" stroke-width="2" stroke-linecap="round" stroke-linejoin="round"/>
<path d="M165.004 464.288H213.202C212.228 485.215 199.909 504.694 182.141 511.788C176.745 513.973 174.139 520.133 176.323 525.529C177.442 528.28 179.666 530.438 182.457 531.465C194.486 535.808 207.2 538.019 219.994 537.993C266.401 538.519 309.637 508.59 325.628 464.288H459.824C494.663 464.288 523 435.938 523 401.112V211.586C523 176.747 494.663 148.41 459.824 148.41H325.155M101.829 328.013C166.031 328.013 218.269 275.788 218.269 211.586C211.873 57.108 -8.24161 57.1475 -14.6118 211.586C-14.6118 275.788 37.6265 328.013 101.829 328.013ZM140.853 298.531C151.198 279.657 157.937 253.005 159.187 222.115H196.592C192.828 256.256 170.967 284.948 140.853 298.531ZM196.592 201.056H159.187C157.95 170.179 151.211 143.514 140.853 124.64C170.967 138.223 192.828 166.928 196.592 201.056ZM101.829 116.204C117.939 116.204 135.838 151.832 138.128 201.056H65.5423C67.8324 151.832 85.7322 116.19 101.842 116.19L101.829 116.204ZM138.128 222.115C135.851 271.326 117.952 306.954 101.829 306.954C85.7058 306.954 67.8192 271.326 65.5291 222.115H138.115H138.128ZM62.8047 124.64C52.4597 143.514 45.7209 170.179 44.4706 201.056H7.06533C10.8295 166.915 32.691 138.21 62.8047 124.64ZM44.4706 222.115C45.7078 252.992 52.4465 279.644 62.8047 298.531C32.691 284.948 10.8295 256.256 7.06533 222.115H44.4706Z" stroke="white" stroke-width="2" stroke-linecap="round" stroke-linejoin="round"/>
<path d="M249.239 390.583C235.446 390.793 235.367 411.404 249.239 411.641H375.59C389.384 411.417 389.462 390.819 375.59 390.583H249.239ZM438.766 337.936C438.766 332.119 434.054 327.407 428.237 327.407H295.252C289.434 327.407 284.723 332.119 284.723 337.936C284.723 343.754 289.434 348.465 295.252 348.465H428.237C434.054 348.465 438.766 343.754 438.766 337.936ZM305.992 274.761C305.992 280.578 310.704 285.29 316.521 285.29H428.237C434.054 285.29 438.766 280.578 438.766 274.761C438.766 268.943 434.054 264.231 428.237 264.231H316.521C310.704 264.231 305.992 268.943 305.992 274.761ZM375.59 222.114C389.41 221.877 389.436 201.293 375.59 201.056H333.473C319.653 201.293 319.627 221.877 333.473 222.114H375.59Z" stroke="black" stroke-opacity="0.75" stroke-width="2" stroke-linecap="round" stroke-linejoin="round"/>
</svg>
