<svg width="504" height="316" viewBox="0 0 504 316" fill="none" xmlns="http://www.w3.org/2000/svg">
<path d="M-16 22.4247C-16 10.6121 -6.38788 1 5.42475 1H481.575C493.388 1 503 10.6121 503 22.4247V56.6646C503 62.1875 498.523 66.6646 493 66.6646H-6.00001C-11.5229 66.6646 -16 62.1875 -16 56.6646V22.4247ZM481.564 341.793H5.42475C-6.38788 341.793 -16 332.18 -16 320.368V90.831C-16 85.3082 -11.5228 80.831 -6 80.831H492.989C498.512 80.831 502.989 85.3082 502.989 90.831V320.368C502.989 332.18 493.377 341.793 481.564 341.793Z" stroke="white" stroke-width="2" stroke-linecap="round" stroke-linejoin="round"/>
<path d="M35.8372 30.2964H13.9745C10.0552 30.2964 6.88037 33.4712 6.88037 37.3905C6.88037 41.3098 10.0552 44.4847 13.9745 44.4847H35.8372C39.7565 44.4847 42.9313 41.3098 42.9313 37.3905C42.9313 33.4712 39.7565 30.2964 35.8372 30.2964ZM98.5568 30.2964H76.7051C72.7858 30.2964 69.611 33.4712 69.611 37.3905C69.611 41.3098 72.7858 44.4847 76.7051 44.4847H98.5568C102.476 44.4847 105.651 41.3098 105.651 37.3905C105.651 33.4712 102.476 30.2964 98.5568 30.2964ZM161.287 30.2964H139.425C135.505 30.2964 132.331 33.4712 132.331 37.3905C132.331 41.3098 135.505 44.4847 139.425 44.4847H161.287C165.207 44.4847 168.382 41.3098 168.382 37.3905C168.382 33.4712 165.207 30.2964 161.287 30.2964ZM197.316 370.366C193.529 369.348 189.642 371.625 188.657 375.413L175.738 424.393C151.347 426.791 131.816 445.818 128.565 469.947H103.79C99.8706 469.947 96.6957 473.122 96.6957 477.041C96.6957 480.961 99.8706 484.135 103.79 484.135H383.209C387.129 484.135 390.303 480.961 390.303 477.041C390.303 473.122 387.129 469.947 383.209 469.947H358.435C355.183 445.818 335.652 426.791 311.261 424.393L298.342 375.413C297.357 371.636 293.482 369.37 289.705 370.355C289.705 370.355 289.694 370.355 289.683 370.355C285.895 371.363 283.639 375.238 284.636 379.015L296.525 424.12H190.485L202.374 379.015C203.371 375.227 201.115 371.352 197.327 370.355L197.316 370.366Z" stroke="white" stroke-width="2" stroke-linecap="round" stroke-linejoin="round"/>
<path d="M74.7024 148.937C48.4606 148.937 27.1016 170.296 27.1016 196.538V266.658C27.1016 270.577 30.2764 273.752 34.1957 273.752C38.115 273.752 41.2899 270.577 41.2899 266.658V224.345H108.126V266.658C108.126 270.577 111.301 273.752 115.22 273.752C119.139 273.752 122.314 270.577 122.314 266.658V196.538C122.314 170.285 100.966 148.937 74.7133 148.937H74.7024Z" stroke="black" stroke-opacity="0.75" stroke-width="2" stroke-linecap="round" stroke-linejoin="round"/>
<path d="M41.29 210.157V196.538C41.29 178.113 56.2775 163.114 74.7135 163.114C93.1495 163.114 108.126 178.113 108.126 196.538V210.157H41.29Z" stroke="black" stroke-opacity="0.75" stroke-width="2" stroke-linecap="round" stroke-linejoin="round"/>
<path d="M172.279 148.937H149.333C145.414 148.937 142.239 152.112 142.239 156.02V266.636C142.239 270.556 145.414 273.731 149.322 273.731H172.279C206.688 273.731 234.682 245.737 234.682 211.328C234.682 176.92 206.688 148.926 172.279 148.926V148.937Z" stroke="black" stroke-opacity="0.75" stroke-width="2" stroke-linecap="round" stroke-linejoin="round"/>
<path d="M172.28 259.553H156.417V163.114H172.28C198.872 163.114 220.494 184.747 220.494 211.328C220.494 237.909 198.861 259.542 172.28 259.542V259.553Z" stroke="black" stroke-opacity="0.75" stroke-width="2" stroke-linecap="round" stroke-linejoin="round"/>
<path d="M452.619 133.961H263.485C259.566 133.961 256.391 137.136 256.391 141.055C256.391 144.974 259.566 148.149 263.485 148.149H452.619C456.538 148.149 459.713 144.974 459.713 141.055C459.713 137.136 456.538 133.961 452.619 133.961Z" stroke="white" stroke-width="2" stroke-linecap="round" stroke-linejoin="round"/>
<path d="M263.485 195.005H314.217C318.136 195.005 321.311 191.83 321.311 187.911C321.311 183.992 318.136 180.817 314.217 180.817H263.485C259.566 180.817 256.391 183.992 256.391 187.911C256.391 191.83 259.566 195.005 263.485 195.005Z" stroke="black" stroke-opacity="0.75" stroke-width="2" stroke-linecap="round" stroke-linejoin="round"/>
<path d="M452.619 180.828H343.645C339.726 180.828 336.551 184.003 336.551 187.922C336.551 191.842 339.726 195.016 343.645 195.016H452.619C456.538 195.016 459.713 191.842 459.713 187.922C459.713 184.003 456.538 180.828 452.619 180.828Z" stroke="white" stroke-width="2" stroke-linecap="round" stroke-linejoin="round"/>
<path d="M314.217 274.551H263.485C259.566 274.551 256.391 277.726 256.391 281.645C256.391 285.565 259.566 288.74 263.485 288.74H314.217C318.136 288.74 321.311 285.565 321.311 281.645C321.311 277.726 318.136 274.551 314.217 274.551Z" stroke="black" stroke-opacity="0.75" stroke-width="2" stroke-linecap="round" stroke-linejoin="round"/>
<path d="M452.619 274.551H343.645C339.726 274.551 336.551 277.726 336.551 281.645C336.551 285.565 339.726 288.74 343.645 288.74H452.619C456.538 288.74 459.713 285.565 459.713 281.645C459.713 277.726 456.538 274.551 452.619 274.551Z" stroke="white" stroke-width="2" stroke-linecap="round" stroke-linejoin="round"/>
<path d="M452.618 227.685H401.887C397.967 227.685 394.792 230.859 394.792 234.779C394.792 238.698 397.967 241.873 401.887 241.873H452.618C456.538 241.873 459.713 238.698 459.713 234.779C459.713 230.859 456.538 227.685 452.618 227.685Z" stroke="black" stroke-opacity="0.75" stroke-width="2" stroke-linecap="round" stroke-linejoin="round"/>
<path d="M263.485 241.873H372.459C376.378 241.873 379.553 238.698 379.553 234.779C379.553 230.859 376.378 227.685 372.459 227.685H263.485C259.566 227.685 256.391 230.859 256.391 234.779C256.391 238.698 259.566 241.873 263.485 241.873Z" stroke="white" stroke-width="2" stroke-linecap="round" stroke-linejoin="round"/>
</svg>
