<svg width="549" height="342" viewBox="0 0 549 342" fill="none" xmlns="http://www.w3.org/2000/svg">
<path fill-rule="evenodd" clip-rule="evenodd" d="M308.368 223.927C356.799 223.927 399.832 191.554 412.648 143.788C428.123 86.1072 393.878 26.7992 336.184 11.3518C308.286 3.87893 279.141 7.73062 254.118 22.2016C202.473 52.0115 184.72 118.304 214.544 169.895C234.548 204.574 270.976 223.927 308.381 223.927H308.368ZM483.972 473.691L386.703 364.216L327.192 423.741C325.89 425.083 324.235 425.938 322.432 426.331L251.867 440.409C244.855 441.562 239.647 435.621 240.882 429.396L254.647 360.663H189.901C180.38 410.599 136.384 448.506 83.6808 448.506C55.3356 448.506 29.4994 437.493 10.2003 419.564L-37.8781 473.664H483.986L483.972 473.691ZM269.878 379.636L301.668 411.413L261.93 419.36L269.878 379.65V379.636ZM539.808 171.631L509.727 141.509C498.81 130.578 481.084 130.578 470.18 141.509L269.701 341.974H191.827C191.84 341.418 191.854 340.875 191.854 340.319C191.854 280.713 143.341 232.187 83.708 232.187C24.0745 232.187 -24.4379 280.713 -24.4379 340.319C-24.4379 364.853 -16.2191 387.502 -2.39912 405.744L-65.6402 476.837C-66.0063 476.837 -67.3897 479.468 -67.7152 480.77L-68 483.049V519.613C-68 524.766 -63.8499 528.957 -58.6827 528.971C-58.6827 528.971 -58.6691 528.971 -58.6556 528.971H504.777C509.931 528.971 514.108 524.794 514.108 519.64C514.108 519.64 514.108 519.626 514.108 519.613C514.108 514.663 514.365 483.456 513.931 481.231C513.538 479.292 512.996 478.465 511.87 476.986C511.829 476.905 511.789 476.824 511.748 476.824L399.94 350.993L539.822 211.165C550.726 200.234 550.726 182.454 539.822 171.604L539.808 171.631ZM75.1908 216.536C21.6333 216.536 -24.899 176.514 -31.6666 122.007C-38.9631 63.0241 3.06649 9.15466 62.0354 1.83102C121.126 -5.49263 174.887 36.4013 182.211 95.4923C185.086 118.697 180.285 142.282 168.73 162.422L182.74 217.865C184.788 225.975 175.905 232.512 168.784 228.091L127.88 202.852C112.04 211.776 93.4864 216.536 75.2044 216.536H75.1908ZM275.018 171.211C277.866 172.77 281.528 172.797 284.349 171.211L361.586 126.536C367.825 122.942 367.771 113.964 361.586 110.411L284.349 65.818C278.178 62.2782 270.339 66.6995 270.339 73.8333V163.087C270.339 166.396 272.116 169.461 275.004 171.184L275.018 171.211Z" stroke="white" stroke-width="2" stroke-miterlimit="10"/>
<path fill-rule="evenodd" clip-rule="evenodd" d="M65.371 111.672C65.371 106.559 69.5617 102.396 74.7019 102.396H75.8004C80.9541 102.396 85.1313 106.559 85.1313 111.672C85.1313 116.826 80.9812 121.017 75.814 121.03C75.814 121.03 75.8004 121.03 75.7868 121.03H74.6883C69.5346 121.03 65.3574 116.853 65.3574 111.686C65.3574 111.686 65.3574 111.672 65.3574 111.659L65.371 111.672Z" stroke="black" stroke-opacity="0.75" stroke-width="2" stroke-miterlimit="10"/>
<path fill-rule="evenodd" clip-rule="evenodd" d="M16.3984 111.672C16.3984 106.559 20.5621 102.396 25.7293 102.396H26.8007C31.968 102.396 36.1316 106.559 36.1316 111.672C36.1452 116.826 31.9951 121.017 26.8414 121.03C26.8279 121.03 26.8143 121.03 26.8007 121.03H25.7293C20.5756 121.03 16.3984 116.866 16.3984 111.713C16.3984 111.699 16.3984 111.686 16.3984 111.672Z" stroke="black" stroke-opacity="0.75" stroke-width="2" stroke-miterlimit="10"/>
<path fill-rule="evenodd" clip-rule="evenodd" d="M114.374 111.672C114.374 106.559 118.565 102.396 123.705 102.396H124.803C129.957 102.396 134.134 106.559 134.134 111.672C134.134 116.826 129.984 121.017 124.817 121.03C124.817 121.03 124.803 121.03 124.79 121.03H123.691C118.538 121.03 114.36 116.853 114.36 111.699C114.36 111.699 114.36 111.686 114.36 111.672H114.374Z" stroke="black" stroke-opacity="0.75" stroke-width="2" stroke-miterlimit="10"/>
<path fill-rule="evenodd" clip-rule="evenodd" d="M81.8776 398.42C84.4273 399.424 86.8685 399.478 89.4182 398.42C114.536 387.326 141.457 356.825 141.457 328.981C141.457 301.138 109.531 283.195 85.6479 299.253C61.7646 283.209 29.8525 300.5 29.8525 328.981C29.8525 357.462 56.7602 387.34 81.8776 398.42Z" stroke="black" stroke-opacity="0.75" stroke-width="2" stroke-miterlimit="10"/>
</svg>
