<svg width="487" height="274" viewBox="0 0 487 274" fill="none" xmlns="http://www.w3.org/2000/svg">
<path d="M403.828 310.398H55.6719C51.9727 310.398 48.9766 307.402 48.9766 303.703C48.9766 300.004 51.9727 297.008 55.6719 297.008H397.133V196.578C397.133 192.879 400.129 189.883 403.828 189.883C407.527 189.883 410.523 192.879 410.523 196.578V303.703C410.523 307.402 407.527 310.398 403.828 310.398ZM412.197 451H47.3027C29.7443 450.983 15.5167 436.756 15.5 419.197V410.828C15.5 407.129 18.4962 404.133 22.1953 404.133H189.578C193.277 404.133 196.273 407.129 196.273 410.828C196.273 414.527 193.277 417.523 189.578 417.523H28.8906V419.197C28.899 429.357 37.1426 437.601 47.3027 437.609H412.197C422.357 437.601 430.601 429.357 430.609 419.197V417.523H269.922C266.223 417.523 263.227 414.527 263.227 410.828C263.227 407.129 266.223 404.133 269.922 404.133H437.305C441.004 404.133 444 407.129 444 410.828V419.197C443.983 436.756 429.756 450.983 412.197 451Z" stroke="white" stroke-width="2" stroke-miterlimit="10"/>
<path d="M60.5929 310.398L28.581 412.82C27.7106 415.615 25.1161 417.515 22.1953 417.523C18.4962 417.523 15.5 414.527 15.5 410.828C15.5 410.15 15.6004 409.472 15.8013 408.828L48.8678 303.017M410.523 302.674L443.699 408.828C444.803 412.36 442.837 416.109 439.305 417.214C438.661 417.415 437.983 417.515 437.305 417.515C434.375 417.515 431.789 415.607 430.919 412.812L398.907 310.39M249.836 430.914H209.664C205.965 430.914 202.969 427.918 202.969 424.219C202.969 420.52 205.965 417.523 209.664 417.523H249.836C253.535 417.523 256.531 420.52 256.531 424.219C256.531 427.918 253.535 430.914 249.836 430.914ZM129.32 337.18H89.1484C85.4493 337.18 82.4531 334.184 82.4531 330.484C82.4531 326.785 85.4493 323.789 89.1484 323.789H129.32C133.019 323.789 136.016 326.785 136.016 330.484C136.016 334.184 133.019 337.18 129.32 337.18ZM122.625 363.961H82.4531C78.754 363.961 75.7578 360.965 75.7578 357.266C75.7578 353.566 78.754 350.57 82.4531 350.57H122.625C126.324 350.57 129.32 353.566 129.32 357.266C129.32 360.965 126.324 363.961 122.625 363.961ZM115.93 390.742H75.7578C72.0587 390.742 69.0625 387.746 69.0625 384.047C69.0625 380.348 72.0587 377.352 75.7578 377.352H115.93C119.629 377.352 122.625 380.348 122.625 384.047C122.625 387.746 119.629 390.742 115.93 390.742ZM383.742 390.742H343.57C339.871 390.742 336.875 387.746 336.875 384.047C336.875 380.348 339.871 377.352 343.57 377.352H383.742C387.441 377.352 390.438 380.348 390.438 384.047C390.438 387.746 387.441 390.742 383.742 390.742ZM303.398 390.742H156.102C152.402 390.742 149.406 387.746 149.406 384.047C149.406 380.348 152.402 377.352 156.102 377.352H303.398C307.098 377.352 310.094 380.348 310.094 384.047C310.094 387.746 307.098 390.742 303.398 390.742ZM206.316 363.961H162.797C159.098 363.961 156.102 360.965 156.102 357.266C156.102 353.566 159.098 350.57 162.797 350.57H206.316C210.016 350.57 213.012 353.566 213.012 357.266C213.012 360.965 210.016 363.961 206.316 363.961ZM296.703 363.961H253.184C249.484 363.961 246.488 360.965 246.488 357.266C246.488 353.566 249.484 350.57 253.184 350.57H296.703C300.402 350.57 303.398 353.566 303.398 357.266C303.398 360.965 300.402 363.961 296.703 363.961ZM377.047 363.961H336.875C333.176 363.961 330.18 360.965 330.18 357.266C330.18 353.566 333.176 350.57 336.875 350.57H377.047C380.746 350.57 383.742 353.566 383.742 357.266C383.742 360.965 380.746 363.961 377.047 363.961ZM209.664 337.18H169.492C165.793 337.18 162.797 334.184 162.797 330.484C162.797 326.785 165.793 323.789 169.492 323.789H209.664C213.363 323.789 216.359 326.785 216.359 330.484C216.359 334.184 213.363 337.18 209.664 337.18ZM290.008 337.18H249.836C246.137 337.18 243.141 334.184 243.141 330.484C243.141 326.785 246.137 323.789 249.836 323.789H290.008C293.707 323.789 296.703 326.785 296.703 330.484C296.703 334.184 293.707 337.18 290.008 337.18ZM370.352 337.18H330.18C326.481 337.18 323.484 334.184 323.484 330.484C323.484 326.785 326.481 323.789 330.18 323.789H370.352C374.051 323.789 377.047 326.785 377.047 330.484C377.047 334.184 374.051 337.18 370.352 337.18ZM243.141 209.969C239.441 209.969 236.445 206.973 236.445 203.273V62.6719C236.47 40.4937 254.439 22.5251 276.617 22.5H403.828C426.006 22.5251 443.975 40.4937 444 62.6719V136.32C444.117 147.635 438.92 158.356 429.957 165.261C420.441 172.709 407.151 176.492 390.438 176.492H298.62L246.689 208.948C245.626 209.609 244.396 209.969 243.141 209.969ZM236.445 283.617H55.6719C33.4937 283.592 15.5251 265.624 15.5 243.445V149.711C15.5251 127.533 33.4937 109.564 55.6719 109.539H162.797C184.975 109.564 202.944 127.533 202.969 149.711V227.577L241.525 272.57C243.927 275.382 243.601 279.608 240.789 282.01C239.575 283.048 238.035 283.617 236.445 283.617Z" stroke="white" stroke-width="2" stroke-linecap="round" stroke-linejoin="round"/>
<path d="M343.445 234.507C359.346 242.006 370.36 258.175 370.36 276.922C370.36 280.621 367.364 283.617 363.665 283.617H283.321C279.622 283.617 276.626 280.621 276.626 276.922C276.626 258.183 287.631 242.006 303.524 234.507M55.6719 96.1484C51.9727 96.1484 48.9766 93.1523 48.9766 89.4531C49.0017 70.9741 63.9741 56.0017 82.4531 55.9766H216.359C220.059 55.9766 223.055 58.9727 223.055 62.6719C223.055 66.371 220.059 69.3672 216.359 69.3672H82.4531C71.364 69.3756 62.3756 78.364 62.3672 89.4531C62.3672 93.1523 59.371 96.1484 55.6719 96.1484Z" stroke="white" stroke-width="2" stroke-linecap="round" stroke-linejoin="round"/>
<path d="M340.222 149.711C338.824 149.711 337.46 149.276 336.322 148.456C307.515 127.817 288.333 109.539 288.333 87.3945C288.333 70.0704 302.352 56.0186 319.676 55.9767C327.149 55.9014 334.406 58.4289 340.222 63.124C346.03 58.4289 353.295 55.9014 360.76 55.9767C378.084 56.0186 392.111 70.0704 392.111 87.3945C392.111 109.548 372.929 127.826 344.122 148.456C342.984 149.268 341.62 149.711 340.222 149.711ZM143.832 256.836H82.4609C78.7618 256.836 75.7656 253.84 75.7656 250.141V198.922C75.7656 183.974 89.1228 173.546 100.622 169.128C106.849 166.416 109.686 158.08 109.686 151.444V147.703C109.686 137.718 117.779 129.625 127.763 129.625C128.165 129.625 128.575 129.642 128.977 129.667C138.568 130.437 145.932 138.488 145.84 148.104V151.326C146.092 159.746 145.564 168.173 144.259 176.492C158.126 176.417 169.425 187.607 169.492 201.474C169.492 201.516 169.492 201.558 169.492 201.6V231.168C169.475 245.337 157.992 256.819 143.823 256.836H143.832Z" stroke="black" stroke-opacity="0.75" stroke-width="2" stroke-miterlimit="10"/>
<path d="M82.4531 256.836H55.6719C51.9727 256.836 48.9766 253.84 48.9766 250.141V187.54C48.9766 183.84 51.9727 180.844 55.6719 180.844H82.4531" stroke="black" stroke-opacity="0.75" stroke-width="2" stroke-miterlimit="10"/>
<circle cx="323.5" cy="215.5" r="27.5" stroke="white" stroke-width="2"/>
</svg>
