<svg width="429" height="283" viewBox="0 0 429 283" fill="none" xmlns="http://www.w3.org/2000/svg">
<path d="M252.739 253C252.739 210.839 218.56 176.66 176.399 176.66C134.238 176.66 100.059 210.839 100.059 253C100.06 295.161 134.238 329.34 176.399 329.34C218.56 329.34 252.739 295.161 252.739 253ZM254.739 253C254.739 296.266 219.665 331.34 176.399 331.34C133.134 331.34 98.0596 296.266 98.0594 253C98.0594 209.734 133.134 174.66 176.399 174.66C219.665 174.66 254.739 209.734 254.739 253Z" fill="white"/>
<path d="M13.1913 253C13.1913 163.049 86.114 90.1265 176.065 90.1265C212.604 90.1265 246.337 102.162 273.513 122.484C273.955 122.815 274.045 123.442 273.715 123.884C273.384 124.326 272.758 124.416 272.315 124.085C245.474 104.013 212.158 92.1265 176.065 92.1265C87.2185 92.1265 15.1913 164.154 15.1913 253C15.1915 341.847 87.2187 413.874 176.065 413.874C264.912 413.873 336.938 341.847 336.938 253C336.938 216.712 324.925 183.23 304.657 156.32C304.325 155.879 304.413 155.252 304.854 154.919C305.295 154.588 305.923 154.676 306.255 155.117C326.775 182.361 338.938 216.264 338.938 253C338.938 342.952 266.016 415.873 176.065 415.874C86.1141 415.874 13.1915 342.952 13.1913 253Z" fill="white"/>
<path d="M-77.0039 253C-77.0039 113.278 36.2639 0 175.996 0C228.914 0 278.035 16.2425 318.649 44.0195C319.105 44.3313 319.222 44.9533 318.91 45.4092C318.598 45.8648 317.976 45.9816 317.521 45.6699C277.228 18.1132 228.498 2 175.996 2C37.3685 2 -75.0039 114.382 -75.0039 253C-75.0039 391.618 37.3685 504 175.996 504C314.624 504 426.996 391.628 426.996 253C426.996 200.517 411.207 152.547 383.671 112.265C383.359 111.809 383.476 111.186 383.932 110.874C384.388 110.562 385.01 110.68 385.321 111.136C413.079 151.741 428.996 200.103 428.996 253C428.996 392.732 315.728 506 175.996 506C36.2639 506 -77.0039 392.722 -77.0039 253Z" fill="white"/>
<path d="M334.974 93.9252C335.366 93.5364 335.999 93.5389 336.388 93.931C336.777 94.3231 336.774 94.9562 336.382 95.3451L176.661 253.71C176.269 254.099 175.635 254.096 175.247 253.704C174.858 253.312 174.861 252.679 175.252 252.29L334.974 93.9252Z" fill="black" fill-opacity="0.75"/>
<path d="M343.156 18.3071C349.323 12.128 359.886 15.2498 361.702 23.7885L367.728 52.1157C368.436 55.4451 370.962 58.09 374.255 58.9506L406.551 67.3911C414.807 69.5486 417.569 79.8772 411.492 85.8676L341.722 154.641C339.559 156.773 336.611 157.916 333.576 157.799L284.325 155.9C278.642 155.681 274.064 151.166 273.765 145.487L271.137 95.6206C270.973 92.5104 272.135 89.4765 274.335 87.2719L343.156 18.3071ZM359.745 24.2055C358.259 17.2191 349.618 14.6645 344.572 19.7202L275.751 88.684C273.951 90.4878 273 92.9704 273.134 95.5151L275.762 145.381C276.007 150.028 279.753 153.722 284.402 153.902L333.653 155.801C336.136 155.897 338.549 154.962 340.318 153.217L410.088 84.4428C415.06 79.5415 412.8 71.0909 406.045 69.3256L373.749 60.8862C369.724 59.8343 366.637 56.6009 365.771 52.5317L359.745 24.2055Z" fill="black" fill-opacity="0.75"/>
</svg>
