<svg width="40" height="40" viewBox="0 0 40 40" fill="none" xmlns="http://www.w3.org/2000/svg">
<path d="M21.7132 3.33301C23.5882 3.33801 24.5399 3.34801 25.3616 3.37134L25.6849 3.38301C26.0582 3.39634 26.4266 3.41301 26.8716 3.43301C28.6449 3.51634 29.8549 3.79634 30.9166 4.20801C32.0166 4.63134 32.9432 5.20467 33.8699 6.12967C34.7177 6.96256 35.3735 7.97046 35.7916 9.08301C36.2032 10.1447 36.4832 11.3547 36.5666 13.1297C36.5866 13.573 36.6032 13.9413 36.6166 14.3163L36.6266 14.6397C36.6516 15.4597 36.6616 16.4113 36.6649 18.2863L36.6666 19.5297V21.713C36.6706 22.9287 36.6578 24.1444 36.6282 25.3597L36.6182 25.683C36.6049 26.058 36.5882 26.4263 36.5682 26.8697C36.4849 28.6447 36.2016 29.853 35.7916 30.9163C35.3735 32.0289 34.7177 33.0368 33.8699 33.8697C33.037 34.7175 32.0291 35.3733 30.9166 35.7913C29.8549 36.203 28.6449 36.483 26.8716 36.5663L25.6849 36.6163L25.3616 36.6263C24.5399 36.6497 23.5882 36.6613 21.7132 36.6647L20.4699 36.6663H18.2882C17.072 36.6706 15.8558 36.6578 14.6399 36.628L14.3166 36.618C13.9209 36.603 13.5253 36.5858 13.1299 36.5663C11.3566 36.483 10.1466 36.203 9.08322 35.7913C7.97127 35.3731 6.96396 34.7173 6.13156 33.8697C5.28313 33.037 4.62674 32.029 4.20822 30.9163C3.79656 29.8547 3.51656 28.6447 3.43322 26.8697L3.38322 25.683L3.37489 25.3597C3.34417 24.1444 3.33028 22.9287 3.33322 21.713V18.2863C3.32861 17.0707 3.34083 15.855 3.36989 14.6397L3.38156 14.3163C3.39489 13.9413 3.41156 13.573 3.43156 13.1297C3.51489 11.3547 3.79489 10.1463 4.20656 9.08301C4.62605 7.97001 5.2836 6.96207 6.13322 6.12967C6.96515 5.28226 7.97187 4.62646 9.08322 4.20801C10.1466 3.79634 11.3549 3.51634 13.1299 3.43301C13.5732 3.41301 13.9432 3.39634 14.3166 3.38301L14.6399 3.37301C15.8552 3.3434 17.0709 3.33062 18.2866 3.33467L21.7132 3.33301ZM19.9999 11.6663C17.7898 11.6663 15.6701 12.5443 14.1073 14.1071C12.5445 15.6699 11.6666 17.7895 11.6666 19.9997C11.6666 22.2098 12.5445 24.3294 14.1073 25.8922C15.6701 27.455 17.7898 28.333 19.9999 28.333C22.21 28.333 24.3296 27.455 25.8924 25.8922C27.4552 24.3294 28.3332 22.2098 28.3332 19.9997C28.3332 17.7895 27.4552 15.6699 25.8924 14.1071C24.3296 12.5443 22.21 11.6663 19.9999 11.6663ZM19.9999 14.9997C20.6565 14.9996 21.3067 15.1288 21.9134 15.38C22.52 15.6311 23.0713 15.9993 23.5357 16.4636C24 16.9278 24.3684 17.4789 24.6198 18.0855C24.8712 18.6921 25.0006 19.3422 25.0007 19.9988C25.0008 20.6555 24.8716 21.3057 24.6204 21.9123C24.3693 22.519 24.0011 23.0702 23.5368 23.5346C23.0726 23.999 22.5215 24.3674 21.9149 24.6188C21.3083 24.8701 20.6582 24.9996 20.0016 24.9997C18.6755 24.9997 17.4037 24.4729 16.466 23.5352C15.5283 22.5975 15.0016 21.3258 15.0016 19.9997C15.0016 18.6736 15.5283 17.4018 16.466 16.4641C17.4037 15.5265 18.6755 14.9997 20.0016 14.9997M28.7516 9.16634C28.199 9.16634 27.6691 9.38583 27.2784 9.77654C26.8877 10.1672 26.6682 10.6971 26.6682 11.2497C26.6682 11.8022 26.8877 12.3321 27.2784 12.7228C27.6691 13.1135 28.199 13.333 28.7516 13.333C29.3041 13.333 29.834 13.1135 30.2247 12.7228C30.6154 12.3321 30.8349 11.8022 30.8349 11.2497C30.8349 10.6971 30.6154 10.1672 30.2247 9.77654C29.834 9.38583 29.3041 9.16634 28.7516 9.16634Z" fill="url(#paint0_linear_87_292)"/>
<defs>
<linearGradient id="paint0_linear_87_292" x1="3.33228" y1="20.0001" x2="36.6673" y2="20.0001" gradientUnits="userSpaceOnUse">
<stop stop-color="#80A87B"/>
<stop offset="1" stop-color="#A1B16A"/>
</linearGradient>
</defs>
</svg>
