<svg width="208" height="74" viewBox="0 0 208 74" fill="none" xmlns="http://www.w3.org/2000/svg">
<path d="M30.4776 67.3295L30.046 67.8249V72.4971H31.0853V68.2491L37.603 67.1558L37.4269 66.1621L30.4776 67.3295Z" fill="black"/>
<path d="M14.8674 60.6139V56.9666L26.0209 55.0932L26.4496 54.5949V28.5231L26.3997 28.3039L24.0832 23.626L23.1467 24.0616L25.4132 28.637V54.1707L14.2597 56.0441L13.8281 56.5424V61.2118L14.4359 61.7072L39.3118 57.5304V61.1776L18.8926 64.6056L18.461 65.1039V69.7733L19.0687 70.2687L25.4132 69.2038V73.2753H26.4496V68.6059L25.8418 68.1077L19.5003 69.1754V65.5281L39.9195 62.0973L40.3511 61.6018V56.9296L39.7434 56.4342L14.8674 60.6139Z" fill="black"/>
<path d="M31.0853 53.2197V28.637L33.3489 24.0616L32.4124 23.626L30.0959 28.3039L30.046 28.5231V53.8176L30.6538 54.313L42.2359 52.3684L42.0597 51.3747L31.0853 53.2197Z" fill="black"/>
<path d="M42.6 0.250552L42.1508 0H14.3507L13.9015 0.250552L0 23.6004V24.1043L13.9015 47.4542L14.8704 47.2008V16.36L28.2522 8.86901L41.6341 16.36V47.2008L42.6029 47.4542L56.5044 24.1043V23.6004L42.6 0.250552ZM42.6675 2.3831L54.6284 22.4757L42.6675 15.7791V2.3831ZM40.2101 1.00791L28.2493 7.70451L16.2884 1.00791H40.2101ZM13.8281 15.7791L1.86724 22.4757L13.8281 2.3831V15.7791ZM13.8281 45.3216L1.15675 24.036L13.8281 16.9408V45.3216ZM14.8674 15.1983V1.37804L27.21 8.28818L14.8674 15.1983ZM29.2886 8.28818L41.6311 1.37804V15.1983L29.2886 8.28818ZM42.6675 16.9436L55.3389 24.0389L42.6675 45.3216V16.9436Z" fill="black"/>
<path d="M84.7479 17.6305H93.6759V16.6084H83.5676V31.9206H84.7479V17.6305Z" fill="black"/>
<path d="M103.262 29.1863C102.504 29.7728 101.667 30.2397 100.757 30.5956C99.8442 30.9487 98.8695 31.1252 97.8302 31.1252C96.7087 31.1252 95.7281 30.9202 94.8943 30.5131C94.0576 30.1059 93.4087 29.5336 92.9478 28.7991C92.5104 28.1044 92.2872 27.2929 92.2637 26.3704H103.623C103.623 25.1604 103.364 24.0927 102.845 23.1759C102.325 22.2562 101.603 21.5387 100.675 21.0205C99.7474 20.5023 98.6758 20.2461 97.4544 20.2461C96.192 20.2461 95.0822 20.4995 94.128 21.0006C93.1739 21.5046 92.4252 22.2021 91.885 23.0933C91.3448 23.9845 91.0747 25.0237 91.0747 26.2081C91.0747 27.3783 91.3595 28.4118 91.9261 29.3116C92.4957 30.2084 93.2884 30.9117 94.3042 31.4156C95.323 31.9196 96.4973 32.1701 97.8302 32.1701C98.758 32.1701 99.7121 31.9965 100.693 31.6491C101.676 31.3017 102.531 30.8291 103.262 30.2312V29.1863ZM92.892 23.6115C93.3207 22.8769 93.9225 22.3046 94.7035 21.8975C95.4815 21.4903 96.3975 21.2853 97.4515 21.2853C98.4203 21.2853 99.2718 21.4789 100.009 21.8661C100.746 22.2534 101.324 22.8029 101.747 23.509C102.076 24.0613 102.284 24.6877 102.381 25.3881H92.3078C92.3929 24.7304 92.5867 24.1354 92.892 23.6115Z" fill="black"/>
<path d="M115.648 20.9977C114.624 20.4937 113.437 20.2432 112.09 20.2432C110.742 20.2432 109.556 20.4966 108.532 20.9977C107.507 21.5016 106.705 22.1992 106.13 23.0904C105.555 23.9815 105.267 25.0208 105.267 26.2052C105.267 27.3754 105.555 28.4089 106.13 29.3086C106.705 30.2055 107.507 30.9088 108.532 31.4127C109.556 31.9167 110.742 32.1672 112.09 32.1672C113.437 32.1672 114.624 31.9167 115.648 31.4127C116.673 30.9088 117.474 30.2083 118.05 29.3086C118.625 28.4089 118.913 27.3754 118.913 26.2052C118.913 25.0208 118.625 23.9844 118.05 23.0904C117.474 22.1992 116.673 21.5016 115.648 20.9977ZM117.037 28.7961C116.573 29.5307 115.921 30.103 115.079 30.5101C114.236 30.9173 113.241 31.1223 112.09 31.1223C110.954 31.1223 109.958 30.9173 109.11 30.5101C108.261 30.103 107.604 29.5307 107.14 28.7961C106.676 28.0616 106.444 27.196 106.444 26.2023C106.444 25.2087 106.676 24.3431 107.14 23.6085C107.604 22.874 108.259 22.3017 109.11 21.8945C109.958 21.4874 110.951 21.2824 112.09 21.2824C113.241 21.2824 114.236 21.4874 115.079 21.8945C115.921 22.3017 116.573 22.874 117.037 23.6085C117.501 24.3431 117.733 25.2087 117.733 26.2023C117.733 27.1989 117.501 28.0616 117.037 28.7961Z" fill="black"/>
<path d="M128.942 30.8151L123.12 20.4883H121.458V31.9198H122.553V21.7268L128.364 31.9198H129.5L135.31 21.7069V31.9198H136.405V20.4883H134.743L128.942 30.8151Z" fill="black"/>
<path d="M142.236 31.4099C143.255 31.9138 144.429 32.1644 145.762 32.1644C146.69 32.1644 147.644 31.9907 148.624 31.6433C149.608 31.296 150.462 30.8233 151.193 30.2254V29.1834C150.436 29.7699 149.599 30.2368 148.689 30.5927C147.776 30.9458 146.801 31.1223 145.762 31.1223C144.64 31.1223 143.66 30.9173 142.826 30.5101C141.989 30.103 141.34 29.5307 140.879 28.7961C140.442 28.1014 140.219 27.29 140.195 26.3675H151.554C151.554 25.1574 151.296 24.0897 150.776 23.1729C150.257 22.2533 149.535 21.5358 148.607 21.0176C147.679 20.4994 146.607 20.2432 145.386 20.2432C144.124 20.2432 143.014 20.4966 142.06 20.9977C141.106 21.5016 140.357 22.1992 139.817 23.0904C139.276 23.9815 139.006 25.0208 139.006 26.2052C139.006 27.3754 139.291 28.4089 139.858 29.3086C140.424 30.2055 141.217 30.9059 142.236 31.4099ZM140.824 23.6114C141.252 22.8768 141.854 22.3045 142.635 21.8974C143.413 21.4902 144.329 21.2852 145.383 21.2852C146.352 21.2852 147.203 21.4788 147.94 21.8661C148.677 22.2533 149.256 22.8028 149.678 23.5089C150.007 24.0613 150.216 24.6876 150.313 25.388H140.239C140.328 24.7303 140.518 24.1353 140.824 23.6114Z" fill="black"/>
<path d="M152.18 21.4876H157.505V31.9198H158.642V21.4876H163.97V20.4883H152.18V21.4876Z" fill="black"/>
<path d="M167.235 29.6758C167.784 30.3962 168.486 30.9798 169.361 31.4098C170.385 31.9137 171.571 32.1643 172.919 32.1643C174.267 32.1643 175.453 31.9137 176.477 31.4098C177.502 30.9058 178.303 30.2054 178.879 29.3057C179.454 28.406 179.742 27.3725 179.742 26.2023C179.742 25.0178 179.454 23.9814 178.879 23.0874C178.303 22.1934 177.502 21.4987 176.477 20.9947C175.453 20.4908 174.267 20.2402 172.919 20.2402C171.571 20.2402 170.385 20.4908 169.361 20.9947C168.483 21.4247 167.781 22.0083 167.235 22.723V20.4851H166.099V35.2877H167.235V29.6758ZM167.972 23.6113C168.436 22.8767 169.091 22.3044 169.942 21.8973C170.79 21.4902 171.783 21.2852 172.922 21.2852C174.073 21.2852 175.068 21.4902 175.911 21.8973C176.753 22.3044 177.405 22.8767 177.869 23.6113C178.333 24.3459 178.565 25.2114 178.565 26.2051C178.565 27.1988 178.333 28.0643 177.869 28.7989C177.405 29.5335 176.753 30.1058 175.911 30.5129C175.068 30.9201 174.073 31.1251 172.922 31.1251C171.786 31.1251 170.79 30.9201 169.942 30.5129C169.093 30.1058 168.436 29.5335 167.972 28.7989C167.508 28.0643 167.276 27.1988 167.276 26.2051C167.279 25.2086 167.508 24.3459 167.972 23.6113Z" fill="black"/>
<path d="M183.485 30.7951V20.4883H182.349V31.9198H183.823L193.191 21.6158V31.9198H194.327V20.4883H192.854L183.485 30.7951Z" fill="black"/>
<path d="M200.904 20.4883C200.117 20.4883 199.424 20.6278 198.819 20.9068C198.215 21.1858 197.748 21.5731 197.419 22.0713C197.09 22.5696 196.926 23.1504 196.926 23.8167C196.926 24.4687 197.09 25.0495 197.419 25.5534C197.748 26.0574 198.215 26.4475 198.819 26.7265C199.421 27.0055 200.117 27.145 200.904 27.145H200.924H201.195L196.758 31.9226H198.232L202.668 27.145H206.864V31.9226H208V20.4883H200.904ZM200.904 26.1428C200.02 26.1428 199.324 25.9293 198.819 25.4993C198.314 25.0694 198.062 24.5028 198.062 23.7939C198.062 23.0992 198.314 22.5411 198.819 22.1197C199.324 21.6983 200.02 21.4876 200.904 21.4876H206.861V26.1428H200.904Z" fill="black"/>
<path d="M87.3285 42.7737C88.4295 42.21 89.7184 41.9253 91.1922 41.9253C92.4546 41.9253 93.5791 42.1274 94.5597 42.526C95.5432 42.9275 96.3417 43.4969 96.9583 44.2315C97.5748 44.9661 97.9682 45.8316 98.1385 46.8253H99.3599C99.2189 45.6409 98.7874 44.6045 98.0651 43.7105C97.3429 42.8193 96.3946 42.1217 95.2232 41.6178C94.0517 41.1138 92.7218 40.8633 91.2333 40.8633C89.5216 40.8633 88.0185 41.1964 86.7267 41.8626C85.4349 42.5289 84.4308 43.4542 83.7174 44.6387C83.001 45.8231 82.6428 47.1983 82.6428 48.7642C82.6428 50.316 83.001 51.6883 83.7174 52.8784C84.4337 54.0686 85.4378 54.9996 86.7267 55.6658C88.0185 56.3321 89.5187 56.6652 91.2333 56.6652C92.7218 56.6652 94.0517 56.4147 95.2232 55.9107C96.3946 55.4067 97.3429 54.7063 98.0651 53.8066C98.7874 52.9098 99.2189 51.8734 99.3599 50.7032H98.1385C97.9712 51.6969 97.5778 52.5624 96.9583 53.297C96.3417 54.0316 95.5403 54.601 94.5597 55.0024C93.5761 55.4039 92.4546 55.6061 91.1922 55.6061C89.7184 55.6061 88.4295 55.3242 87.3285 54.7576C86.2276 54.1938 85.3732 53.3966 84.7714 52.3688C84.1666 51.341 83.8671 50.1394 83.8671 48.7642C83.8671 47.3748 84.1695 46.1704 84.7714 45.1512C85.3732 44.1319 86.2246 43.3375 87.3285 42.7737Z" fill="black"/>
<path d="M109.409 55.3151L103.59 44.9883H101.926V56.4226H103.021V46.2268L108.831 56.4226H109.97L115.78 46.2069V56.4226H116.875V44.9883H115.211L109.409 55.3151Z" fill="black"/>
<path d="M133.857 44.9883H132.721V56.4226H133.857V44.9883Z" fill="black"/>
<path d="M128.992 49.6434C128.346 49.3445 127.589 49.1936 126.72 49.1936H121.35V44.9883H120.214V56.4226H126.72C127.589 56.4226 128.349 56.2717 128.992 55.9728C129.638 55.6738 130.14 55.2524 130.498 54.7058C130.856 54.1619 131.035 53.527 131.035 52.8067C131.035 52.0863 130.856 51.4514 130.498 50.9076C130.14 50.3638 129.638 49.9424 128.992 49.6434ZM129.013 54.7086C128.452 55.1841 127.694 55.4233 126.74 55.4233H121.35V50.1958H126.74C127.694 50.1958 128.452 50.4293 129.013 50.8991C129.573 51.3688 129.855 52.0038 129.855 52.8095C129.855 53.5982 129.576 54.2303 129.013 54.7086Z" fill="black"/>
<path d="M140.128 46.3975C140.915 45.9903 141.84 45.7853 142.908 45.7853C144.215 45.7853 145.33 46.0928 146.255 46.705C147.183 47.3171 147.764 48.1399 148.002 49.1763H149.223C149.056 48.2908 148.677 47.5193 148.087 46.8587C147.497 46.1982 146.757 45.68 145.865 45.307C144.972 44.934 143.989 44.7461 142.908 44.7461C141.646 44.7461 140.53 44.9966 139.561 45.5006C138.592 46.0046 137.835 46.7021 137.286 47.5933C136.74 48.4845 136.464 49.5237 136.464 50.7053C136.464 51.8755 136.737 52.9118 137.286 53.8087C137.832 54.7084 138.592 55.4088 139.561 55.9128C140.53 56.4167 141.646 56.6673 142.908 56.6673C143.989 56.6673 144.975 56.4794 145.865 56.1064C146.757 55.7334 147.497 55.2124 148.087 54.5433C148.677 53.8742 149.056 53.1083 149.223 52.2371H148.002C147.776 53.2706 147.203 54.0963 146.276 54.7084C145.351 55.3206 144.226 55.6281 142.908 55.6281C141.842 55.6281 140.915 55.4231 140.128 55.0159C139.341 54.6088 138.73 54.0365 138.296 53.3019C137.861 52.5673 137.644 51.7018 137.644 50.7081C137.644 49.7144 137.861 48.8489 138.296 48.1143C138.73 47.3769 139.341 46.8046 140.128 46.3975Z" fill="black"/>
<path d="M176.568 45.4977C175.544 44.9937 174.358 44.7432 173.01 44.7432C171.662 44.7432 170.476 44.9937 169.452 45.4977C168.427 46.0016 167.625 46.6992 167.05 47.5904C166.475 48.4815 166.187 49.5208 166.187 50.7023C166.187 51.8725 166.475 52.9089 167.05 53.8058C167.625 54.7055 168.427 55.4059 169.452 55.9099C170.476 56.4138 171.662 56.6644 173.01 56.6644C174.358 56.6644 175.544 56.4138 176.568 55.9099C177.593 55.4059 178.394 54.7055 178.97 53.8058C179.545 52.9089 179.833 51.8725 179.833 50.7023C179.833 49.5179 179.545 48.4815 178.97 47.5904C178.391 46.6992 177.593 46.0016 176.568 45.4977ZM177.957 53.299C177.493 54.0336 176.841 54.6058 175.999 55.013C175.156 55.4201 174.161 55.6251 173.01 55.6251C171.874 55.6251 170.878 55.4201 170.03 55.013C169.182 54.6058 168.524 54.0336 168.06 53.299C167.596 52.5644 167.364 51.6989 167.364 50.7052C167.364 49.7115 167.596 48.846 168.06 48.1114C168.524 47.3768 169.179 46.8045 170.03 46.3974C170.878 45.9902 171.871 45.7852 173.01 45.7852C174.161 45.7852 175.156 45.9902 175.999 46.3974C176.841 46.8045 177.493 47.3768 177.957 48.1114C178.421 48.846 178.653 49.7115 178.653 50.7052C178.653 51.6989 178.421 52.5644 177.957 53.299Z" fill="black"/>
<path d="M192.821 51.2065C192.34 50.862 191.694 50.6427 190.907 50.5288C191.403 50.3865 191.832 50.1843 192.178 49.9081C192.795 49.4184 193.106 48.7522 193.106 47.9066C193.106 46.9812 192.798 46.2637 192.178 45.7512C191.562 45.2416 190.675 44.9854 189.524 44.9854H182.05V50.6712V56.4197H189.818C191.11 56.4197 192.105 56.1549 192.807 55.6225C193.508 55.0929 193.861 54.3355 193.861 53.3561C193.864 52.4194 193.517 51.7019 192.821 51.2065ZM191.283 46.4801C191.712 46.8076 191.926 47.283 191.926 47.9094C191.926 48.5899 191.691 49.1309 191.221 49.5323C190.752 49.9338 190.103 50.1359 189.275 50.1359L183.192 50.1075L183.209 45.9904H189.422C190.235 45.9876 190.854 46.1527 191.283 46.4801ZM191.979 54.8907C191.509 55.2438 190.816 55.4203 189.906 55.4203H183.209L183.192 51.084L189.128 51.1125C190.294 51.1125 191.177 51.3033 191.782 51.6848C192.384 52.0663 192.686 52.6244 192.686 53.3589C192.683 54.028 192.449 54.5377 191.979 54.8907Z" fill="black"/>
<path d="M153.254 53.4871C153.254 54.4978 152.406 55.3207 151.364 55.3207H150.459C150.395 55.3207 150.336 55.3064 150.28 55.2808V56.3627C150.427 56.4026 150.585 56.4197 150.744 56.4197H151.364C152.2 56.4197 152.952 56.0923 153.501 55.5627C154.05 55.0302 154.39 54.2957 154.39 53.4842V45.9876H162.514V56.4197H163.65V44.9854H153.251V53.4871H153.254Z" fill="black"/>
</svg>
