<svg width="40" height="40" viewBox="0 0 40 40" fill="none" xmlns="http://www.w3.org/2000/svg">
<path d="M19.9999 3.33301C10.7999 3.33301 3.33325 10.7997 3.33325 19.9997C3.33325 29.1997 10.7999 36.6663 19.9999 36.6663C29.1999 36.6663 36.6666 29.1997 36.6666 19.9997C36.6666 10.7997 29.1999 3.33301 19.9999 3.33301ZM27.7332 14.6663C27.4832 17.2997 26.3999 23.6997 25.8499 26.6497C25.6166 27.8997 25.1499 28.3163 24.7166 28.3663C23.7499 28.4497 23.0166 27.733 22.0833 27.1163C20.6166 26.1497 19.7833 25.5497 18.3666 24.6163C16.7166 23.533 17.7833 22.933 18.7333 21.9663C18.9833 21.7163 23.2499 17.833 23.3333 17.483C23.3448 17.43 23.3433 17.375 23.3288 17.3227C23.3142 17.2704 23.2872 17.2225 23.2499 17.183C23.1499 17.0997 23.0166 17.133 22.8999 17.1497C22.7499 17.183 20.4166 18.733 15.8666 21.7997C15.1999 22.2497 14.5999 22.483 14.0666 22.4663C13.4666 22.4497 12.3333 22.133 11.4833 21.8497C10.4333 21.5163 9.61659 21.333 9.68325 20.7497C9.71659 20.4497 10.1333 20.1497 10.9166 19.833C15.7833 17.7163 19.0166 16.3163 20.6333 15.6497C25.2666 13.7163 26.2166 13.383 26.8499 13.383C26.9833 13.383 27.2999 13.4163 27.4999 13.583C27.6666 13.7163 27.7166 13.8997 27.7332 14.033C27.7166 14.133 27.7499 14.433 27.7332 14.6663Z" fill="url(#paint0_linear_87_294)"/>
<defs>
<linearGradient id="paint0_linear_87_294" x1="3.33325" y1="19.9997" x2="36.6666" y2="19.9997" gradientUnits="userSpaceOnUse">
<stop stop-color="#80A87B"/>
<stop offset="1" stop-color="#A1B16A"/>
</linearGradient>
</defs>
</svg>
