<svg width="100" height="100" viewBox="0 0 100 100" fill="none" xmlns="http://www.w3.org/2000/svg">
<path d="M33.833 75.1669V70.7519C24.2367 64.7896 16.375 53.411 16.375 41.2499C16.375 20.484 35.1665 4.13981 56.6357 8.18452L57.6602 8.39252L57.666 8.3935C60.8541 9.11616 63.9644 10.2654 66.7832 11.8456C67.1445 12.0482 67.2738 12.5058 67.0713 12.8671C66.8687 13.2284 66.4111 13.3568 66.0498 13.1542C63.3688 11.6513 60.3957 10.5504 57.334 9.85639V9.85541C36.3954 5.29707 17.875 21.0976 17.875 41.2499C17.875 52.9359 25.5652 64.0066 34.9717 69.6914C35.1962 69.8271 35.3329 70.0706 35.333 70.333V75.1669C35.333 75.4559 35.3242 75.7399 35.3174 75.9931C35.3104 76.2528 35.3059 76.4836 35.3135 76.6972C35.3289 77.132 35.3922 77.4133 35.5107 77.6142C35.7118 77.9546 36.3069 78.4169 38.583 78.4169H61.542C63.6137 78.4169 64.2835 77.782 64.5488 77.2734C64.882 76.6345 64.792 75.9 64.792 75.1669V70.333C64.7921 70.0704 64.9295 69.8271 65.1543 69.6914C78.3619 61.7176 87.281 43.528 78.7871 26.4589C78.6027 26.0882 78.7535 25.6387 79.124 25.454C79.4949 25.2695 79.9454 25.4201 80.1299 25.791C88.9734 43.5627 79.8028 62.3608 66.292 70.7509V75.1669C66.292 75.6423 66.431 76.908 65.8789 77.9667C65.2588 79.156 63.9279 79.9169 61.542 79.9169H38.583C36.2773 79.9169 34.8721 79.4833 34.2188 78.3759C33.9102 77.853 33.8329 77.2719 33.8145 76.7499C33.8051 76.4851 33.8104 76.2129 33.8174 75.9521C33.8246 75.6849 33.833 75.4298 33.833 75.1669Z" fill="#292D32"/>
<path d="M49.3504 32.501C49.5569 32.1422 50.0149 32.0184 50.3738 32.2247C50.7328 32.4312 50.8567 32.89 50.6502 33.2491L46.1922 40.9991L46.1892 41.004C45.7738 41.7136 45.8285 42.1957 45.9773 42.4532C46.1274 42.7126 46.5209 43.0001 47.3338 43.0001H52.6248C53.785 43.0001 54.7949 43.4172 55.2976 44.3008C55.7992 45.1826 55.6445 46.2626 55.0642 47.254L55.0632 47.253L50.6521 54.9961C50.447 55.356 49.9886 55.4815 49.6287 55.2764C49.2689 55.0713 49.1435 54.6138 49.3484 54.254L53.7654 46.504L53.7693 46.4961L53.905 46.2383C54.1745 45.6622 54.1201 45.265 53.9939 45.043C53.8508 44.7914 53.4644 44.5001 52.6248 44.5001H47.3338C46.1885 44.5001 45.1847 44.0791 44.6785 43.2032C44.1713 42.3253 44.3098 41.2447 44.8943 40.2461L49.3504 32.501Z" fill="url(#paint0_linear_198_546)"/>
<path d="M35.2115 90.945C44.887 88.1987 55.1123 88.1987 64.7877 90.945C65.1862 91.0581 65.4174 91.4732 65.3043 91.8717C65.1911 92.2699 64.7769 92.5013 64.3785 92.3883C54.9708 89.718 45.0294 89.718 35.6217 92.3883C35.2233 92.5014 34.8081 92.27 34.6949 91.8717C34.5819 91.4733 34.8132 91.0581 35.2115 90.945Z" fill="#292D32"/>
<defs>
<linearGradient id="paint0_linear_198_546" x1="44.3663" y1="43.7499" x2="55.5995" y2="43.7499" gradientUnits="userSpaceOnUse">
<stop stop-color="#80A87B"/>
<stop offset="1" stop-color="#A1B16A"/>
</linearGradient>
</defs>
</svg>
