<svg width="100" height="100" viewBox="0 0 100 100" fill="none" xmlns="http://www.w3.org/2000/svg">
<path d="M90.917 49.9996C90.9168 45.8116 87.5211 42.4166 83.333 42.4166C79.1451 42.4168 75.7502 45.8117 75.75 49.9996C75.75 54.1877 79.145 57.5834 83.333 57.5836C87.5212 57.5836 90.917 54.1878 90.917 49.9996ZM92.417 49.9996C92.417 55.0162 88.3496 59.0836 83.333 59.0836C78.3166 59.0834 74.25 55.0161 74.25 49.9996C74.2502 44.9833 78.3167 40.9168 83.333 40.9166C88.3495 40.9166 92.4168 44.9832 92.417 49.9996Z" fill="#292D32"/>
<path d="M90.917 16.6664C90.9168 12.4784 87.5211 9.08337 83.333 9.08337C79.1451 9.08355 75.7502 12.4785 75.75 16.6664C75.75 20.8544 79.145 24.2502 83.333 24.2504C87.5212 24.2504 90.917 20.8545 90.917 16.6664ZM92.417 16.6664C92.417 21.683 88.3496 25.7504 83.333 25.7504C78.3166 25.7502 74.25 21.6829 74.25 16.6664C74.2502 11.6501 78.3167 7.58355 83.333 7.58337C88.3495 7.58337 92.4168 11.6499 92.417 16.6664Z" fill="url(#paint0_linear_198_656)"/>
<path d="M90.917 83.333C90.9168 79.145 87.5211 75.75 83.333 75.75C79.1451 75.7502 75.7502 79.1451 75.75 83.333C75.75 87.5211 79.145 90.9168 83.333 90.917C87.5212 90.917 90.917 87.5212 90.917 83.333ZM92.417 83.333C92.417 88.3496 88.3496 92.417 83.333 92.417C78.3166 92.4168 74.25 88.3495 74.25 83.333C74.2502 78.3167 78.3167 74.2502 83.333 74.25C88.3495 74.25 92.4168 78.3166 92.417 83.333Z" fill="#292D32"/>
<path d="M24.2502 49.9996C24.2501 45.8116 20.8543 42.4166 16.6663 42.4166C12.4784 42.4168 9.08343 45.8117 9.08325 49.9996C9.08325 54.1877 12.4782 57.5834 16.6663 57.5836C20.8544 57.5836 24.2502 54.1878 24.2502 49.9996ZM25.7502 49.9996C25.7502 55.0162 21.6828 59.0836 16.6663 59.0836C11.6498 59.0834 7.58325 55.0161 7.58325 49.9996C7.58343 44.9833 11.6499 40.9168 16.6663 40.9166C21.6827 40.9166 25.7501 44.9832 25.7502 49.9996Z" fill="#292D32"/>
<path d="M75 49.25C75.4142 49.25 75.75 49.5858 75.75 50C75.75 50.4142 75.4142 50.75 75 50.75H25C24.5858 50.75 24.25 50.4142 24.25 50C24.25 49.5858 24.5858 49.25 25 49.25H75Z" fill="#292D32"/>
<path d="M45.0833 70.833V50C45.0833 49.5858 45.419 49.25 45.8333 49.25C46.2475 49.25 46.5833 49.5858 46.5833 50V70.833C46.5833 74.8839 47.5956 77.7847 49.4885 79.6777C51.3816 81.5708 54.2822 82.583 58.3333 82.583H75.0002C75.4142 82.5832 75.7501 82.9191 75.7502 83.333C75.7502 83.7471 75.4143 84.0828 75.0002 84.083H58.3333C54.051 84.083 50.7016 83.0119 48.428 80.7383C46.1545 78.4647 45.0833 75.1152 45.0833 70.833Z" fill="#292D32"/>
<path d="M45.0833 33.2496V29.1666C45.0833 24.8844 46.1544 21.5349 48.428 19.2614C50.7016 16.9878 54.051 15.9166 58.3333 15.9166H75.0002C75.4143 15.9168 75.7502 16.2525 75.7502 16.6666C75.7502 17.0807 75.4143 17.4164 75.0002 17.4166H58.3333C54.2822 17.4166 51.3816 18.4288 49.4885 20.3219C47.5955 22.215 46.5833 25.1156 46.5833 29.1666V33.2496C46.5833 33.6638 46.2475 33.9996 45.8333 33.9996C45.419 33.9996 45.0833 33.6638 45.0833 33.2496Z" fill="url(#paint1_linear_198_656)"/>
<defs>
<linearGradient id="paint0_linear_198_656" x1="74.25" y1="16.6669" x2="92.417" y2="16.6669" gradientUnits="userSpaceOnUse">
<stop stop-color="#80A87B"/>
<stop offset="1" stop-color="#A1B16A"/>
</linearGradient>
<linearGradient id="paint1_linear_198_656" x1="45.0833" y1="24.9581" x2="75.7502" y2="24.9581" gradientUnits="userSpaceOnUse">
<stop stop-color="#80A87B"/>
<stop offset="1" stop-color="#A1B16A"/>
</linearGradient>
</defs>
</svg>
