<svg width="100" height="100" viewBox="0 0 100 100" fill="none" xmlns="http://www.w3.org/2000/svg">
<path d="M24.2964 85.5122V60.3599C24.2964 59.9456 24.6322 59.6099 25.0464 59.6099C25.4606 59.6099 25.7964 59.9456 25.7964 60.3599V85.5122C25.7964 92.245 31.2547 97.7065 37.9917 97.7065H62.0415C68.775 97.7064 74.2358 92.2482 74.2358 85.5122V83.4712C74.2359 83.0571 74.5718 82.7214 74.9858 82.7212C75.4 82.7212 75.7358 83.057 75.7358 83.4712V85.5122C75.7358 93.0771 69.603 99.2064 62.0415 99.2065H37.9917C30.4262 99.2065 24.2964 93.0733 24.2964 85.5122Z" fill="black"/>
<path d="M74.2365 36.2617V15.4834C74.2364 8.75077 68.7781 3.29004 62.0412 3.29004H37.9914C32.1644 3.29004 27.2889 7.37676 26.0813 12.8369C25.9918 13.2414 25.5912 13.4967 25.1867 13.4072C24.7825 13.3177 24.5272 12.9179 24.6164 12.5137C25.9727 6.38053 31.4462 1.79004 37.9914 1.79004H62.0412C69.6066 1.79004 75.7364 7.92247 75.7365 15.4834V36.2617C75.7365 36.6758 75.4006 37.0115 74.9865 37.0117C74.5723 37.0117 74.2365 36.6759 74.2365 36.2617Z" fill="black"/>
<path d="M49.503 12.1497C50.6724 12.1497 51.6203 11.2018 51.6203 10.0326C51.6203 8.86337 50.6724 7.91553 49.503 7.91553C48.3337 7.91553 47.3857 8.86337 47.3857 10.0326C47.3857 11.2018 48.3337 12.1497 49.503 12.1497Z" fill="black"/>
<path d="M46.6357 27.4189C46.6356 21.5435 41.8694 16.7776 35.9932 16.7773H12.9326C7.0564 16.7776 2.29018 21.5435 2.29004 27.4189V45.6738C2.2902 51.5493 7.05642 56.3152 12.9326 56.3154H35.2432V56.3115H35.9932C36.9336 56.3116 38.1585 56.6972 39.3633 57.1484C40.5784 57.6036 41.9604 58.202 43.1455 58.6709C44.3846 59.1611 45.4236 59.5156 46.1309 59.5938C46.4287 59.6266 46.5736 59.5971 46.6279 59.5791C46.6313 59.5606 46.6357 59.5313 46.6357 59.4883V27.4189ZM48.1357 59.4883C48.1357 60.0524 47.9172 60.5742 47.3984 60.8721C46.9564 61.1258 46.4244 61.1356 45.9658 61.085C45.0287 60.9815 43.8094 60.5474 42.5938 60.0664C41.3242 59.5641 40.0538 59.0092 38.8379 58.5537C37.6578 58.1117 36.6999 57.8357 36.0654 57.8154H12.9326C6.22813 57.8152 0.790199 52.3778 0.790039 45.6738V27.4189C0.790176 20.7149 6.22812 15.2776 12.9326 15.2773H35.9932C42.6977 15.2776 48.1356 20.7149 48.1357 27.4189V59.4883Z" fill="black"/>
<path d="M97.7136 69.9697V51.7148C97.7135 45.8394 92.9472 41.0735 87.071 41.0732H64.0105C58.1343 41.0735 53.3681 45.8394 53.3679 51.7148V83.7881C53.3679 83.8312 53.3713 83.8605 53.3748 83.8789C53.4285 83.8969 53.5735 83.9266 53.8728 83.8936C54.58 83.8155 55.6191 83.4609 56.8582 82.9707C58.0433 82.5018 59.4252 81.9034 60.6404 81.4482C61.8452 80.997 63.07 80.6114 64.0105 80.6113H87.071C92.9472 80.6111 97.7135 75.8452 97.7136 69.9697ZM99.2136 69.9697C99.2135 76.6737 93.7755 82.1111 87.071 82.1113H64.0105C63.3776 82.1115 62.3917 82.3933 61.1658 82.8525C59.9498 83.308 58.6795 83.8629 57.4099 84.3652C56.1941 84.8462 54.975 85.2813 54.0378 85.3848C53.5794 85.4354 53.0473 85.4255 52.6052 85.1719C52.0865 84.874 51.8679 84.3521 51.8679 83.7881V51.7148C51.8681 45.0108 57.306 39.5735 64.0105 39.5732H87.071C93.7755 39.5735 99.2135 45.0108 99.2136 51.7148V69.9697Z" fill="black"/>
<path d="M25.5449 23.086C26.2015 22.8604 26.9782 22.8038 27.705 23.0684L27.706 23.0675C27.711 23.0691 27.7156 23.0726 27.7206 23.0743C27.7243 23.0757 27.7287 23.0759 27.7324 23.0772L27.7314 23.0782C29.2467 23.5995 30.2812 25.2628 29.954 26.8507L29.2841 31.1495C29.2225 31.6196 29.526 31.8955 29.8876 31.8956H35.2607C36.4713 31.8956 37.5171 32.3844 38.1484 33.2413C38.7831 34.1029 38.9295 35.2428 38.5204 36.3907C38.3814 36.7809 37.9516 36.9849 37.5615 36.8458C37.1714 36.7066 36.9683 36.2769 37.1074 35.8868C37.3689 35.1528 37.2458 34.5456 36.9404 34.1309C36.6314 33.7117 36.0655 33.3956 35.2607 33.3956H29.8876C28.637 33.3955 27.6014 32.3331 27.8007 30.9278L27.8017 30.9181L28.4726 26.6202L28.4814 26.5714C28.6612 25.7668 28.1016 24.7815 27.2304 24.4903C27.2219 24.4875 27.2134 24.4847 27.205 24.4815C26.8649 24.3537 26.4429 24.3638 26.0322 24.505C25.6165 24.6479 25.2951 24.8962 25.1357 25.1358L25.1337 25.1388L19.624 33.3341C19.3929 33.6775 18.9275 33.7688 18.5839 33.5382C18.2402 33.3071 18.1487 32.8409 18.3798 32.4972L23.8896 24.3018C24.2676 23.7355 24.8864 23.3123 25.5449 23.086Z" fill="url(#paint0_linear_80_59)"/>
<path d="M35.539 40.6495C35.6684 40.256 36.0928 40.0416 36.4863 40.171C36.8798 40.3004 37.0942 40.7248 36.9648 41.1183L35.3037 46.1681C35.0458 47.1607 34.3933 47.9909 33.6035 48.5685C32.8038 49.153 31.8106 49.5186 30.8252 49.5186H25.7197C25.2432 49.5186 24.6701 49.4403 24.1357 49.2872C23.6445 49.1464 23.0964 48.9149 22.6982 48.547L18.543 45.3311C18.2154 45.0777 18.1558 44.6069 18.4092 44.2794C18.6626 43.9519 19.1334 43.8912 19.4609 44.1446L23.626 47.3683L23.6972 47.4308C23.8329 47.5664 24.1248 47.7243 24.5488 47.8458C24.9545 47.962 25.3888 48.0186 25.7197 48.0186H30.8252C31.4516 48.0186 32.14 47.7798 32.7178 47.3575C33.2948 46.9357 33.7088 46.3704 33.8584 45.7686L33.874 45.7149L35.539 40.6495Z" fill="url(#paint1_linear_80_59)"/>
<path d="M18.1184 31.5708C18.1184 30.7139 17.9318 30.334 17.7219 30.1401C17.4973 29.9327 17.0659 29.7681 16.1819 29.7681H14.8372C13.9552 29.7681 13.5233 29.9324 13.2981 30.1401C13.0877 30.3343 12.9006 30.7145 12.9006 31.5708V44.7378C12.9006 45.5948 13.0872 45.9756 13.2971 46.1694C13.5218 46.3767 13.9536 46.5405 14.8372 46.5405H16.1819C17.0639 46.5405 17.4957 46.3762 17.7209 46.1685C17.9313 45.9743 18.1184 45.594 18.1184 44.7378V31.5708ZM19.6184 44.7378C19.6184 45.7634 19.4014 46.6593 18.7385 47.271C18.0903 47.8691 17.1788 48.0405 16.1819 48.0405H14.8372C13.839 48.0405 12.9276 47.8694 12.2795 47.271C11.6168 46.659 11.4006 45.7627 11.4006 44.7378V31.5708C11.4006 30.5452 11.6176 29.6493 12.2805 29.0376C12.9288 28.4395 13.8403 28.2681 14.8372 28.2681H16.1819C17.18 28.2681 18.0914 28.4393 18.7395 29.0376C19.4023 29.6496 19.6184 30.5458 19.6184 31.5708V44.7378Z" fill="url(#paint2_linear_80_59)"/>
<path d="M62.25 57.2197C62.25 52.8142 65.8257 49.25 70.2295 49.25C72.5064 49.2501 74.5529 50.2039 76 51.7324C77.4501 50.2055 79.5082 49.2501 81.7705 49.25C82.1847 49.25 82.5205 49.5858 82.5205 50C82.5205 50.4142 82.1847 50.75 81.7705 50.75C79.6668 50.7501 77.7775 51.7696 76.6006 53.3428C76.459 53.5321 76.2364 53.6436 76 53.6436C75.7636 53.6434 75.5409 53.5321 75.3994 53.3428C74.2224 51.7664 72.3495 50.7501 70.2295 50.75C66.6517 50.75 63.75 53.6451 63.75 57.2197C63.75 61.4885 65.7352 64.9036 68.2188 67.4326C70.5554 69.812 73.2923 71.3625 75.0908 72.0488L75.4375 72.1748L75.4434 72.1758V72.1768C75.5588 72.2172 75.7608 72.25 76 72.25C76.2392 72.25 76.4412 72.2172 76.5566 72.1768L76.5615 72.1748C78.3407 71.564 81.2889 69.9692 83.7812 67.4316C86.2649 64.903 88.25 61.4885 88.25 57.2197C88.25 55.5639 87.633 54.0616 86.6084 52.917C86.3321 52.6084 86.3584 52.1337 86.667 51.8574C86.9755 51.5814 87.4494 51.6077 87.7256 51.916C88.9879 53.3261 89.75 55.1818 89.75 57.2197C89.75 61.9911 87.5229 65.7625 84.8516 68.4824C82.1888 71.1934 79.0384 72.9107 77.0488 73.5938L77.0479 73.5928C76.7236 73.7055 76.3434 73.75 76 73.75C75.6562 73.75 75.2756 73.7057 74.9512 73.5928C72.9611 72.9112 69.8109 71.1945 67.1484 68.4834C64.4771 65.7631 62.25 61.991 62.25 57.2197Z" fill="url(#paint3_linear_80_59)"/>
<path d="M68.991 22.7736C69.4051 22.7737 69.741 23.1094 69.741 23.5236C69.741 23.9377 69.4051 24.2734 68.991 24.2736H50.0144C49.6002 24.2736 49.2644 23.9378 49.2644 23.5236C49.2644 23.1093 49.6002 22.7736 50.0144 22.7736H68.991Z" fill="url(#paint4_linear_80_59)"/>
<path d="M60.8601 34.7631C61.2743 34.7631 61.6101 35.0989 61.6101 35.5131C61.6101 35.9273 61.2743 36.2631 60.8601 36.2631H50.0144C49.6002 36.2631 49.2644 35.9273 49.2644 35.5131C49.2644 35.0988 49.6002 34.7631 50.0144 34.7631H60.8601Z" fill="url(#paint5_linear_80_59)"/>
<path d="M48.603 70.8253C49.0171 70.8254 49.353 71.1612 49.353 71.5753C49.353 71.9895 49.0171 72.3252 48.603 72.3253H29.6265C29.2123 72.3253 28.8765 71.9895 28.8765 71.5753C28.8765 71.1611 29.2123 70.8253 29.6265 70.8253H48.603Z" fill="url(#paint6_linear_80_59)"/>
<path d="M40.4761 82.8148C40.8901 82.815 41.2261 83.1507 41.2261 83.5648C41.2261 83.9789 40.8901 84.3146 40.4761 84.3148H29.6265C29.2123 84.3148 28.8765 83.979 28.8765 83.5648C28.8765 83.1506 29.2123 82.8148 29.6265 82.8148H40.4761Z" fill="url(#paint7_linear_80_59)"/>
<defs>
<linearGradient id="paint0_linear_80_59" x1="18.2522" y1="29.8909" x2="38.7499" y2="29.8909" gradientUnits="userSpaceOnUse">
<stop stop-color="#80A87B"/>
<stop offset="1" stop-color="#A1B16A"/>
</linearGradient>
<linearGradient id="paint1_linear_80_59" x1="18.2522" y1="44.826" x2="37.0025" y2="44.826" gradientUnits="userSpaceOnUse">
<stop stop-color="#80A87B"/>
<stop offset="1" stop-color="#A1B16A"/>
</linearGradient>
<linearGradient id="paint2_linear_80_59" x1="11.4006" y1="38.1543" x2="19.6184" y2="38.1543" gradientUnits="userSpaceOnUse">
<stop stop-color="#80A87B"/>
<stop offset="1" stop-color="#A1B16A"/>
</linearGradient>
<linearGradient id="paint3_linear_80_59" x1="62.25" y1="61.5" x2="89.75" y2="61.5" gradientUnits="userSpaceOnUse">
<stop stop-color="#80A87B"/>
<stop offset="1" stop-color="#A1B16A"/>
</linearGradient>
<linearGradient id="paint4_linear_80_59" x1="49.2644" y1="23.5236" x2="69.741" y2="23.5236" gradientUnits="userSpaceOnUse">
<stop stop-color="#80A87B"/>
<stop offset="1" stop-color="#A1B16A"/>
</linearGradient>
<linearGradient id="paint5_linear_80_59" x1="49.2644" y1="35.5131" x2="61.6101" y2="35.5131" gradientUnits="userSpaceOnUse">
<stop stop-color="#80A87B"/>
<stop offset="1" stop-color="#A1B16A"/>
</linearGradient>
<linearGradient id="paint6_linear_80_59" x1="28.8765" y1="71.5753" x2="49.353" y2="71.5753" gradientUnits="userSpaceOnUse">
<stop stop-color="#80A87B"/>
<stop offset="1" stop-color="#A1B16A"/>
</linearGradient>
<linearGradient id="paint7_linear_80_59" x1="28.8765" y1="83.5648" x2="41.2261" y2="83.5648" gradientUnits="userSpaceOnUse">
<stop stop-color="#80A87B"/>
<stop offset="1" stop-color="#A1B16A"/>
</linearGradient>
</defs>
</svg>
