<svg width="100" height="100" viewBox="0 0 100 100" fill="none" xmlns="http://www.w3.org/2000/svg">
<path d="M50.0211 7.52087C51.068 7.52098 52.0293 8.05102 52.8493 8.93103C53.6669 9.80862 54.3909 11.0783 54.9948 12.6957H54.9938L62.3248 32.2318L62.4254 32.476C62.9501 33.6661 63.8025 34.4002 64.7418 34.6898C65.743 34.9985 66.942 34.8324 68.11 34.0111L70.7311 32.14C71.0681 31.8994 71.5362 31.977 71.777 32.3138C72.0178 32.6509 71.9392 33.12 71.6022 33.3607L68.9772 35.2357L68.9733 35.2386C67.4746 36.2924 65.7983 36.5856 64.2995 36.1234C62.8017 35.6615 61.5792 34.4758 60.9245 32.7689L60.9225 32.764L61.6246 32.5004L60.9225 32.7631L53.5895 13.222V13.2211C53.0267 11.7136 52.3897 10.6393 51.7516 9.95447C51.1162 9.27243 50.526 9.02098 50.0211 9.02087C49.5162 9.02087 48.9253 9.27229 48.2897 9.95447C47.6517 10.6394 47.0155 11.7137 46.4528 13.2211L46.4518 13.222L39.1188 32.7631L39.1168 32.7689C38.4619 34.4762 37.2393 35.6618 35.736 36.1234C34.2326 36.585 32.5489 36.2917 31.0319 35.2416L31.0221 35.2347L14.7721 23.6097L14.7711 23.6088C13.3303 22.5738 12.1234 21.9642 11.1793 21.7064C10.2268 21.4463 9.66452 21.5726 9.35121 21.808C9.03817 22.0432 8.76032 22.548 8.74574 23.5385C8.73129 24.5201 8.98308 25.855 9.58168 27.5394L26.8317 75.8314L26.8327 75.8353C27.0621 76.4909 27.5831 77.1338 28.2663 77.6166C28.9496 78.0994 29.7284 78.3754 30.4166 78.3754H69.5836C70.2718 78.3753 71.0508 78.0994 71.734 77.6166C72.4171 77.1338 72.9372 76.4908 73.1666 75.8353L73.1686 75.8314L90.0016 28.7064C90.6521 26.8664 90.9273 25.3985 90.9098 24.3119C90.8921 23.2167 90.5843 22.6337 90.2145 22.3539C89.8456 22.0749 89.204 21.9378 88.151 22.223C87.1055 22.5063 85.7737 23.1787 84.1871 24.3177C83.8507 24.5591 83.3818 24.4823 83.1403 24.1459C82.8989 23.8095 82.9759 23.3406 83.3121 23.099C84.9756 21.9047 86.4732 21.124 87.7584 20.7758C89.0357 20.4297 90.2274 20.4828 91.1188 21.1566C92.0093 21.83 92.3884 22.9636 92.4098 24.2885C92.4313 25.6219 92.098 27.2786 91.4157 29.2084L91.4147 29.2103L74.5817 76.3353L74.5807 76.3344C74.2263 77.344 73.4776 78.2215 72.5993 78.8422C71.7202 79.4633 70.6451 79.8753 69.5836 79.8754H30.4166C29.3549 79.8754 28.2792 79.4635 27.4 78.8422C26.5208 78.2208 25.7705 77.3425 25.4166 76.3314V76.3304L8.16859 28.0443V28.0433C7.53828 26.2699 7.22765 24.745 7.24574 23.516C7.26377 22.2958 7.61295 21.2381 8.45082 20.6088C9.28853 19.9796 10.4012 19.9386 11.5748 20.2592C12.7569 20.582 14.1281 21.3004 15.6452 22.39L31.8854 34.0082L32.109 34.1556C33.2273 34.8521 34.3516 34.9787 35.2955 34.6888C36.3023 34.3796 37.2047 33.5657 37.7164 32.2318L45.0475 12.6947C45.6513 11.0778 46.3746 9.80843 47.192 8.93103C48.0122 8.05083 48.9741 7.52087 50.0211 7.52087Z" fill="#292D32"/>
<path d="M72.9164 90.9166C73.3306 90.9166 73.6664 91.2524 73.6664 91.6666C73.6664 92.0808 73.3306 92.4166 72.9164 92.4166H27.0834C26.6692 92.4166 26.3334 92.0808 26.3334 91.6666C26.3334 91.2524 26.6692 90.9166 27.0834 90.9166H72.9164Z" fill="url(#paint0_linear_198_646)"/>
<path d="M60.4164 57.5834C60.8306 57.5834 61.1664 57.9192 61.1664 58.3334C61.1664 58.7476 60.8306 59.0834 60.4164 59.0834H39.5834C39.1692 59.0834 38.8334 58.7476 38.8334 58.3334C38.8334 57.9192 39.1692 57.5834 39.5834 57.5834H60.4164Z" fill="url(#paint1_linear_198_646)"/>
<defs>
<linearGradient id="paint0_linear_198_646" x1="26.3334" y1="91.6666" x2="73.6664" y2="91.6666" gradientUnits="userSpaceOnUse">
<stop stop-color="#80A87B"/>
<stop offset="1" stop-color="#A1B16A"/>
</linearGradient>
<linearGradient id="paint1_linear_198_646" x1="38.8334" y1="58.3334" x2="61.1664" y2="58.3334" gradientUnits="userSpaceOnUse">
<stop stop-color="#80A87B"/>
<stop offset="1" stop-color="#A1B16A"/>
</linearGradient>
</defs>
</svg>
