<svg width="100" height="100" viewBox="0 0 100 100" fill="none" xmlns="http://www.w3.org/2000/svg">
<path d="M85.2773 46.6785C84.9875 46.3887 84.5202 46.3887 84.2304 46.6785L81.5749 49.3341C80.809 50.1029 80.3122 51.0876 80.1437 52.1847C79.8568 54.03 79.0081 55.7008 77.6833 57.0226L74.4097 60.2962C74.1199 60.586 74.1199 61.0532 74.4097 61.343C74.5546 61.4879 74.7439 61.5589 74.9332 61.5589C75.1224 61.5589 75.3117 61.4879 75.4566 61.343L78.7301 58.0695C80.2767 56.5258 81.2703 54.5682 81.6045 52.4124C81.7257 51.6258 82.0776 50.922 82.6217 50.3779L85.2773 47.7224C85.5671 47.4326 85.5671 46.9654 85.2773 46.6756V46.6785Z" fill="black"/>
<path d="M73.8508 71.4623C75.1874 71.4623 76.4974 70.9212 77.4437 69.9749C78.4048 69.0138 78.9341 67.7363 78.9341 66.379C78.9341 65.0217 78.4048 63.7412 77.4437 62.7831L57.6279 42.9672C57.3381 42.6774 56.8708 42.6774 56.581 42.9672C56.2912 43.257 56.2912 43.7243 56.581 44.0141L76.3969 63.8299C77.8045 65.2375 77.8045 67.5264 76.3969 68.931C75.7256 69.6023 74.8 69.9867 73.8508 69.9867C72.8897 69.9867 71.9848 69.6141 71.3047 68.9369L56.1108 53.7431C56.0753 53.7076 56.0369 53.6751 55.9955 53.6485C55.7087 53.4592 55.3183 53.4888 55.067 53.7431C54.7772 54.0329 54.7772 54.5001 55.067 54.7899L70.2549 69.9778C70.2549 69.9778 70.2608 69.9837 70.2638 69.9867L73.768 73.4909C75.1756 74.8985 75.1756 77.1874 73.768 78.592C72.3604 79.9996 70.0715 79.9996 68.6669 78.592L65.1538 75.0789L49.9659 59.891C49.6761 59.6012 49.2088 59.6012 48.919 59.891C48.6292 60.1808 48.6292 60.648 48.919 60.9378L64.107 76.1258C65.5116 77.5334 65.5116 79.8192 64.107 81.2268C62.6994 82.6344 60.4105 82.6344 59.0059 81.2268L55.0463 77.2672C55.0463 77.2672 55.0463 77.2672 55.0463 77.2643L43.8209 66.0389C43.5311 65.7491 43.0639 65.7491 42.7741 66.0389C42.5227 66.2903 42.4902 66.6806 42.6795 66.9675C42.7061 67.0089 42.7386 67.0473 42.7741 67.0828L54.0024 78.3111C55.407 79.7187 55.4041 82.0046 54.0024 83.4092C53.3222 84.0894 52.4144 84.4649 51.4504 84.4649C51.0719 84.4649 50.7022 84.4087 50.3503 84.2934C49.9629 84.1692 49.546 84.3792 49.4188 84.7695C49.2946 85.1569 49.5075 85.5738 49.8949 85.701C50.3947 85.8607 50.9151 85.9435 51.4504 85.9435C52.8107 85.9435 54.0881 85.4142 55.0492 84.456C56.0458 83.4595 56.5396 82.1495 56.5367 80.8394L57.9679 82.2707C58.9586 83.2614 60.2627 83.7582 61.5638 83.7582C62.865 83.7582 64.1691 83.2614 65.1597 82.2707C66.1563 81.2741 66.6501 79.9641 66.6472 78.6541L67.6289 79.6359C68.6196 80.6265 69.9237 81.1233 71.2248 81.1233C72.526 81.1233 73.8301 80.6265 74.8207 79.6359C76.805 77.6516 76.805 74.4254 74.8207 72.4441L73.8419 71.4653C73.8419 71.4653 73.8537 71.4653 73.8596 71.4653H73.8626L73.8508 71.4623Z" fill="url(#paint0_linear_81_77)"/>
<path d="M42.5672 31.6887L37.0876 26.212L37.3212 25.9784C39.1369 24.1627 39.1369 21.2056 37.3212 19.3899L31.2975 13.3662C29.4818 11.5505 26.5246 11.5505 24.7089 13.3662L19.945 18.1301C19.6552 18.4199 19.6552 18.8872 19.945 19.177C20.2348 19.4668 20.702 19.4668 20.9918 19.177L25.7558 14.413C26.9948 13.1739 29.0146 13.1739 30.2536 14.413L36.2773 20.4367C37.5164 21.6758 37.5164 23.6955 36.2773 24.9345L35.5232 25.6886C35.5232 25.6886 35.5232 25.6886 35.5203 25.6886C35.5173 25.6886 35.5203 25.6886 35.5203 25.6916L13.9301 47.2788C12.6911 48.5178 10.6714 48.5178 9.43231 47.2788L3.4086 41.255C2.8083 40.6547 2.4771 39.8563 2.4771 39.0076C2.4771 38.1589 2.8083 37.3605 3.4086 36.7602L14.6251 25.5437C14.9149 25.2539 14.9149 24.7867 14.6251 24.4969C14.3353 24.2071 13.868 24.2071 13.5782 24.4969L2.36177 35.7104C0.546078 37.5261 0.546078 40.4832 2.36177 42.2989L8.38548 48.3226C9.26671 49.2039 10.4348 49.6859 11.6797 49.6859C12.9247 49.6859 14.0928 49.2009 14.974 48.3226L15.2461 48.0506L17.3782 50.1827C17.9193 50.7268 18.2771 51.4247 18.3866 52.1492C18.7118 54.3316 19.7084 56.3099 21.2727 57.8742L24.7178 61.3223C24.8627 61.4672 25.052 61.5381 25.2412 61.5381C25.4305 61.5381 25.6198 61.4672 25.7647 61.3223C26.0545 61.0325 26.0545 60.5652 25.7647 60.2754L22.3196 56.8274C20.9829 55.4908 20.1283 53.7963 19.8504 51.9304C19.6966 50.8953 19.1909 49.9047 18.428 49.1388L16.2959 47.0067L36.0407 27.2589L41.5203 32.7355C41.6652 32.8804 41.8545 32.9514 42.0438 32.9514C42.233 32.9514 42.4223 32.8804 42.5672 32.7355C42.857 32.4457 42.857 31.9785 42.5672 31.6887Z" fill="url(#paint1_linear_81_77)"/>
<path d="M46.5269 77.4594C46.5269 77.4594 46.5151 77.4594 46.5092 77.4594L47.2781 76.6906C49.2623 74.7063 49.2623 71.4801 47.2781 69.4988C46.2283 68.449 44.8295 67.9611 43.4486 68.0232C44.6521 66.0626 44.4126 63.4603 42.7152 61.7658C40.7309 59.7816 37.5047 59.7816 35.5234 61.7658L35.343 61.9462C35.3489 60.6362 34.8521 59.3262 33.8556 58.3296C32.8945 57.3686 31.617 56.8392 30.2597 56.8392C28.9023 56.8392 27.6248 57.3686 26.6638 58.3296L21.4267 63.5667C19.4424 65.551 19.4424 68.7772 21.4267 70.7585C22.4173 71.7492 23.7214 72.246 25.0226 72.246C25.0285 72.246 25.0344 72.246 25.0403 72.246L24.8599 72.4264C23.8988 73.3874 23.3695 74.6649 23.3695 76.0223C23.3695 77.3796 23.8988 78.6571 24.8599 79.6182C25.8506 80.6088 27.1547 81.1056 28.4558 81.1056C29.757 81.1056 31.0611 80.6088 32.0517 79.6182L32.2321 79.4378C32.2262 80.7478 32.723 82.0578 33.7195 83.0544C34.7102 84.045 36.0143 84.5418 37.3154 84.5418C38.4687 84.5418 39.622 84.1515 40.5594 83.3737C40.5446 84.6956 41.0385 86.0204 42.0439 87.0258C43.0346 88.0165 44.3387 88.5133 45.6398 88.5133C46.9409 88.5133 48.245 88.0165 49.2357 87.0258L50.1169 86.1416C51.078 85.1806 51.6073 83.9031 51.6073 82.5457C51.6073 81.1884 51.078 79.9109 50.1169 78.9498C49.1559 77.9888 47.8784 77.4594 46.521 77.4594H46.5269ZM22.4735 69.7117C21.0659 68.3041 21.0659 66.0153 22.4735 64.6106L27.7106 59.3735C28.3907 58.6934 29.2986 58.3178 30.2626 58.3178C31.2267 58.3178 32.1315 58.6934 32.8146 59.3735C34.2193 60.7782 34.2222 63.067 32.8146 64.4716L27.5716 69.7147C26.164 71.1193 23.8781 71.1163 22.4735 69.7147V69.7117ZM31.0108 78.5713C29.6032 79.976 27.3173 79.9789 25.9097 78.5713C25.2296 77.8912 24.854 76.9833 24.854 76.0193C24.854 75.0553 25.2296 74.1504 25.9097 73.4673L28.6184 70.7585C28.6184 70.7585 28.6185 70.7585 28.6214 70.7585L33.8585 65.5214C33.8585 65.5214 33.8585 65.5214 33.8585 65.5185L36.5673 62.8097C37.2711 62.1059 38.1937 61.754 39.1193 61.754C40.0449 61.754 40.9675 62.1059 41.6713 62.8097C43.0789 64.2173 43.0789 66.5062 41.6713 67.9108L40.0892 69.4929L33.7284 75.8537L31.0167 78.5654L31.0108 78.5713ZM39.8704 82.0075C38.4628 83.4151 36.174 83.4151 34.7693 82.0075C34.0892 81.3274 33.7136 80.4195 33.7136 79.4555C33.7136 78.4915 34.0892 77.5866 34.7693 76.9065L41.1331 70.5427C42.5407 69.138 44.8266 69.138 46.2342 70.5427C47.6418 71.9503 47.6418 74.2391 46.2342 75.6437L42.9311 78.9469L42.0469 79.8281C42.0469 79.8281 42.0469 79.8281 42.0469 79.8311L39.8734 82.0046L39.8704 82.0075ZM49.076 85.0948L48.1948 85.979C46.7872 87.3866 44.4983 87.3866 43.0937 85.979C41.6891 84.5743 41.6861 82.2855 43.0937 80.8809L43.9779 79.9967C44.658 79.3165 45.5659 78.941 46.5299 78.941C47.4939 78.941 48.3988 79.3165 49.0819 79.9967C49.765 80.6768 50.1376 81.5847 50.1376 82.5487C50.1376 83.5127 49.7621 84.4176 49.0819 85.1007L49.076 85.0948Z" fill="black"/>
<path d="M97.6352 35.7104L75.288 13.3662C74.4097 12.485 73.2387 12 71.9937 12C70.7488 12 69.5778 12.485 68.6995 13.3662L62.6758 19.3899C61.7945 20.2711 61.3096 21.4392 61.3096 22.6842C61.3096 23.9291 61.7945 25.1002 62.6758 25.9784L62.8709 26.1736L60.8098 28.2348C60.1652 28.8824 59.3046 29.255 58.3879 29.2875L48.1591 29.6483C44.9122 29.7636 41.8604 31.0914 39.5627 33.3861L30.1442 42.8046C28.1629 44.7889 28.1629 48.0151 30.1442 49.9994C31.1023 50.9604 32.3798 51.4898 33.7401 51.4898H33.7489C35.0856 51.4898 36.3926 50.9486 37.336 50.0023L42.1975 45.1408C51.8319 46.3414 58.728 44.8628 63.2702 40.6163C63.5688 40.3384 63.5836 39.8711 63.3056 39.5725C63.0277 39.2738 62.5604 39.259 62.2618 39.537C58.0064 43.5143 51.3883 44.8539 42.029 43.6297C41.8013 43.6001 41.5736 43.677 41.4109 43.8396L36.2921 48.9585C35.6238 49.6297 34.6982 50.0142 33.7489 50.0142H33.743C32.776 50.0142 31.8711 49.6386 31.191 48.9585C29.7864 47.5508 29.7864 45.262 31.191 43.8544L40.6095 34.4359C42.6411 32.4043 45.341 31.2303 48.2124 31.1298L58.4411 30.769C59.7334 30.7217 60.9458 30.1953 61.8566 29.2816L63.9178 27.2204L71.8577 35.1604C72.1475 35.4502 72.6147 35.4502 72.9046 35.1604C73.1944 34.8706 73.1944 34.4034 72.9046 34.1136L63.7256 24.9346C62.4865 23.6955 62.4865 21.6758 63.7256 20.4367L69.7493 14.413C70.3496 13.8127 71.148 13.4815 71.9997 13.4815C72.8513 13.4815 73.6468 13.8127 74.2471 14.413L96.5943 36.7602C97.8333 37.9993 97.8333 40.019 96.5943 41.258L90.5706 47.2817C89.3315 48.5208 87.3118 48.5208 86.0727 47.2817L79.3275 40.5365C79.0377 40.2467 78.5704 40.2467 78.2806 40.5365C77.9908 40.8263 77.9908 41.2935 78.2806 41.5833L85.0259 48.3286C85.9338 49.2364 87.1284 49.6918 88.3202 49.6918C89.5119 49.6918 90.7066 49.2364 91.6144 48.3286L97.6381 42.3049C99.4538 40.4892 99.4538 37.532 97.6381 35.7163L97.6352 35.7104Z" fill="black"/>
<defs>
<linearGradient id="paint0_linear_81_77" x1="42.5581" y1="64.3467" x2="78.9341" y2="64.3467" gradientUnits="userSpaceOnUse">
<stop stop-color="#80A87B"/>
<stop offset="1" stop-color="#A1B16A"/>
</linearGradient>
<linearGradient id="paint1_linear_81_77" x1="1" y1="36.7713" x2="42.7845" y2="36.7713" gradientUnits="userSpaceOnUse">
<stop stop-color="#80A87B"/>
<stop offset="1" stop-color="#A1B16A"/>
</linearGradient>
</defs>
</svg>
