<svg width="1204" height="790" viewBox="0 0 1204 790" fill="none" xmlns="http://www.w3.org/2000/svg">
<path d="M342.064 143.567L467.446 496.985L405.245 519.052L289.058 191.551L314.504 182.524L191.787 479.654L182.516 458.008L487.87 349.679L505.59 399.628L151.229 525.344L135.348 480.578L262.899 171.652L342.064 143.567Z" fill="url(#paint0_linear_408_319)"/>
<path d="M1121.32 175.932V550.932H1055.32V203.432H1082.32L867.316 442.432L865.816 418.932H1189.82V471.932H813.816V424.432L1037.32 175.932H1121.32Z" fill="url(#paint1_linear_408_319)"/>
<path d="M587.951 596.025C550.229 579.962 520.854 558.758 499.828 532.414C478.932 505.763 466.805 475.963 463.446 443.013C460.218 409.756 466.243 375.186 481.523 339.304C496.803 303.422 517.484 275.274 543.567 254.861C569.781 234.142 599.669 222.233 633.233 219.135C666.927 215.731 702.635 222.06 740.357 238.124C778.08 254.187 807.235 275.479 827.824 301.999C848.851 328.343 860.978 358.143 864.206 391.4C867.565 424.351 861.605 458.767 846.325 494.649C831.045 530.531 810.298 558.832 784.085 579.551C758.002 599.964 728.114 611.873 694.42 615.278C661.163 618.506 625.673 612.088 587.951 596.025ZM609.303 545.882C647.639 562.207 682.154 563.68 712.849 550.304C743.675 536.62 767.772 509.384 785.141 468.595C802.511 427.806 805.381 391.712 793.754 360.312C782.257 328.607 757.34 304.591 719.005 288.267C680.669 271.942 645.935 270.556 614.803 284.109C584.108 297.486 560.076 324.569 542.707 365.358C525.338 406.147 522.401 442.395 533.898 474.1C545.833 505.63 570.968 529.557 609.303 545.882Z" fill="url(#paint2_linear_408_319)"/>
<defs>
<linearGradient id="paint0_linear_408_319" x1="103.649" y1="426.568" x2="482.513" y2="292.159" gradientUnits="userSpaceOnUse">
<stop stop-color="#80A87B"/>
<stop offset="1" stop-color="#A1B16A"/>
</linearGradient>
<linearGradient id="paint1_linear_408_319" x1="802" y1="362.932" x2="1204" y2="362.932" gradientUnits="userSpaceOnUse">
<stop stop-color="#80A87B"/>
<stop offset="1" stop-color="#A1B16A"/>
</linearGradient>
<linearGradient id="paint2_linear_408_319" x1="458.391" y1="328.91" x2="869.655" y2="504.04" gradientUnits="userSpaceOnUse">
<stop stop-color="#80A87B"/>
<stop offset="1" stop-color="#A1B16A"/>
</linearGradient>
</defs>
</svg>
