<svg width="1178" height="734" viewBox="0 0 1178 734" fill="none" xmlns="http://www.w3.org/2000/svg">
<path d="M289.721 88.2295L414.824 441.747L352.64 463.863L236.712 136.27L262.15 127.223L139.313 424.576L130.06 402.925L435.328 294.355L453.009 344.318L98.7477 470.314L82.9014 425.535L210.578 116.377L289.721 88.2295Z" fill="url(#paint0_linear_408_319)"/>
<path d="M1069.58 123V498H1003.58V150.5H1030.58L815.585 389.5L814.085 366H1138.08V419H762.085V371.5L985.585 123H1069.58Z" fill="url(#paint1_linear_408_319)"/>
<path d="M533.979 546.873C496.271 530.775 466.902 509.539 445.873 483.165C424.975 456.484 412.837 426.656 409.459 393.683C406.212 360.402 412.212 325.814 427.46 289.918C442.707 254.022 463.358 225.869 489.411 205.459C515.594 184.742 545.456 172.845 578.995 169.766C612.665 166.38 648.354 172.736 686.062 188.834C723.77 204.931 752.92 226.255 773.512 252.805C794.541 279.18 806.679 309.007 809.926 342.288C813.303 375.261 807.368 409.696 792.121 445.592C776.874 481.488 756.158 509.794 729.975 530.511C703.922 550.921 674.06 562.819 640.39 566.204C607.157 569.414 571.686 562.97 533.979 546.873ZM555.286 496.71C593.607 513.069 628.1 514.566 658.767 501.2C689.564 487.527 713.628 460.288 730.961 419.483C748.293 378.678 751.14 342.562 739.5 311.135C727.991 279.402 703.076 255.355 664.755 238.996C626.434 222.637 591.722 221.228 560.618 234.771C529.952 248.137 505.952 275.222 488.62 316.027C471.287 356.832 468.376 393.101 479.885 424.835C491.831 456.393 516.965 480.351 555.286 496.71Z" fill="url(#paint2_linear_408_319)"/>
<defs>
<linearGradient id="paint0_linear_408_319" x1="43.999" y1="374.006" x2="437.424" y2="234.78" gradientUnits="userSpaceOnUse">
<stop stop-color="#80A87B"/>
<stop offset="1" stop-color="#A1B16A"/>
</linearGradient>
<linearGradient id="paint1_linear_408_319" x1="742.602" y1="310" x2="1159.93" y2="310" gradientUnits="userSpaceOnUse">
<stop stop-color="#80A87B"/>
<stop offset="1" stop-color="#A1B16A"/>
</linearGradient>
<linearGradient id="paint2_linear_408_319" x1="418.024" y1="285.217" x2="802.141" y2="448.378" gradientUnits="userSpaceOnUse">
<stop stop-color="#80A87B"/>
<stop offset="1" stop-color="#A1B16A"/>
</linearGradient>
</defs>
</svg>
