<svg width="581" height="205" viewBox="0 0 581 205" fill="none" xmlns="http://www.w3.org/2000/svg">
<path d="M41.52 131.78H38.62V3.72L38.81 0.7L40.07 0L41.52 2.74V131.78Z" fill="white"/>
<path d="M73.85 152.59H70.95V79.26H73.85V80.08V152.59Z" fill="white"/>
<path d="M41.52 157.85H38.62V170.89H41.52V157.85Z" fill="white"/>
<path d="M71.28 80.64L64.39 66.9L66.98 65.6L73.65 78.9L73.85 79.26L71.28 80.64Z" fill="white"/>
<path d="M112.72 171.91L109.82 171.24V159.03H112.72V171.91Z" fill="white"/>
<path d="M54.51 181.79H51.61V194.76H54.51V181.79Z" fill="white"/>
<path d="M73.85 191.55H70.95V204.58H73.85V191.55Z" fill="white"/>
<path d="M116.67 0.345099L1.63385 64.6103L3.0482 67.142L118.084 2.87682L116.67 0.345099Z" fill="white"/>
<path d="M40.8932 0.27071L39.4784 2.80219L154.503 67.0875L155.918 64.556L40.8932 0.27071Z" fill="white"/>
<path d="M118.94 132.56L116.26 131.79L116.25 1.58L117.68 0L118.94 0.7L119.13 2.03V130.71L118.94 132.56Z" fill="white"/>
<path d="M117.68 2.9L41.38 2.94L40.07 0H117.68V2.9Z" fill="white"/>
<path d="M38.62 157.85L39.81 156.47L40.85 156.19L71.17 151.2L73.85 152.59L72.65 153.82L71.33 154.11L41.52 159.02L38.62 157.85Z" fill="white"/>
<path d="M40.31 172.28L38.62 170.89L40.68 169.27L110.01 157.84L111.09 157.67L112.72 159.03L111.48 160.54L41.52 172.07L40.31 172.28Z" fill="white"/>
<path d="M51.61 181.79L52.75 180.31L53.34 180.21L110.54 170.78L112.72 171.91L111.45 173.37L109.39 173.91L53.6 183.1L51.61 181.79Z" fill="white"/>
<path d="M53.24 196.19L51.61 194.77L53.83 193.12L71.17 190.27L72.15 190.15L73.85 191.54L71.83 193.1L54.3 195.98L53.24 196.19Z" fill="white"/>
<path d="M86.41 80.64L83.87 79.26L84.19 78.61L90.72 65.6L93.31 66.9L86.41 80.64Z" fill="white"/>
<path d="M86.77 189.35H83.87V202.41H86.77V189.35Z" fill="white"/>
<path d="M86.77 151.43L83.87 150.26V79.26H86.77V151.43Z" fill="white"/>
<path d="M85.58 151.64L83.89 150.26L86.14 148.61L117.45 143.45L117.92 146.31L87.71 151.29L85.58 151.64Z" fill="white"/>
<path d="M83.87 189.35L85.12 187.81L85.84 187.69L104.49 184.62L104.99 187.5L86.17 190.57L83.87 189.35Z" fill="white"/>
<path d="M0 67.3V65.89L0.3 65.34L38.81 0.700012L41.57 1.72001L2.89 66.67L0 67.3Z" fill="white"/>
<path d="M38.76 132.56L38.32 131.81L0.5 68.08L0 67.3L2.34 65.51L3.04 66.68L40.9 130.48L41.52 131.78L38.76 132.56Z" fill="white"/>
<path d="M118.94 132.56L116.45 131.08L155.36 65.51L157.76 67.3L118.94 132.56Z" fill="white"/>
<path d="M157.76 67.3L154.68 66.46L116.12 1.72001L118.94 0.700012L157.15 64.92L157.76 65.89V67.3Z" fill="white"/>
<path d="M236.61 49.2216H261.537V46.3678H233.315V89.1187H236.61V49.2216Z" fill="white"/>
<path d="M288.299 81.4874C286.185 83.1249 283.849 84.4286 281.307 85.4222C278.758 86.4079 276.037 86.9008 273.135 86.9008C270.004 86.9008 267.266 86.3285 264.938 85.1917C262.602 84.055 260.791 82.4572 259.504 80.4063C258.282 78.4667 257.659 76.2012 257.594 73.6256H289.308C289.308 70.2472 288.586 67.2662 287.135 64.7066C285.685 62.139 283.668 60.1358 281.078 58.689C278.488 57.2423 275.496 56.5269 272.086 56.5269C268.561 56.5269 265.463 57.2343 262.799 58.6334C260.135 60.0404 258.045 61.988 256.536 64.4761C255.028 66.9642 254.274 69.8656 254.274 73.1725C254.274 76.4396 255.069 79.3252 256.651 81.8372C258.241 84.3412 260.455 86.3046 263.291 87.7116C266.135 89.1186 269.414 89.8182 273.135 89.8182C275.725 89.8182 278.389 89.3333 281.127 88.3635C283.873 87.3936 286.258 86.0741 288.299 84.4047V81.4874ZM259.348 65.9228C260.545 63.8719 262.225 62.2741 264.406 61.1374C266.578 60.0007 269.135 59.4283 272.078 59.4283C274.783 59.4283 277.16 59.9689 279.217 61.05C281.275 62.1311 282.889 63.6653 284.07 65.6367C284.988 67.1788 285.57 68.9276 285.84 70.8831H257.717C257.955 69.0469 258.496 67.3855 259.348 65.9228Z" fill="white"/>
<path d="M322.882 58.6255C320.021 57.2185 316.71 56.519 312.947 56.519C309.185 56.519 305.873 57.2264 303.013 58.6255C300.152 60.0325 297.914 61.9801 296.308 64.4682C294.701 66.9563 293.898 69.8577 293.898 73.1646C293.898 76.4317 294.701 79.3173 296.308 81.8292C297.914 84.3332 300.152 86.2967 303.013 87.7037C305.873 89.1107 309.185 89.8103 312.947 89.8103C316.71 89.8103 320.021 89.1107 322.882 87.7037C325.743 86.2967 327.98 84.3412 329.587 81.8292C331.194 79.3173 331.997 76.4317 331.997 73.1646C331.997 69.8577 331.194 66.9642 329.587 64.4682C327.98 61.9801 325.743 60.0325 322.882 58.6255ZM326.759 80.3984C325.464 82.4493 323.644 84.0471 321.292 85.1838C318.939 86.3205 316.16 86.8929 312.947 86.8929C309.775 86.8929 306.996 86.3205 304.627 85.1838C302.259 84.0471 300.422 82.4493 299.127 80.3984C297.832 78.3475 297.185 75.9309 297.185 73.1567C297.185 70.3824 297.832 67.9658 299.127 65.9149C300.422 63.864 302.25 62.2662 304.627 61.1295C306.996 59.9928 309.767 59.4204 312.947 59.4204C316.16 59.4204 318.939 59.9928 321.292 61.1295C323.644 62.2662 325.464 63.864 326.759 65.9149C328.054 67.9658 328.702 70.3824 328.702 73.1567C328.702 75.9389 328.054 78.3475 326.759 80.3984Z" fill="white"/>
<path d="M359.999 86.0344L343.744 57.2026H339.105V89.1187H342.162V60.6605L358.384 89.1187H361.556L377.778 60.6048V89.1187H380.835V57.2026H376.196L359.999 86.0344Z" fill="white"/>
<path d="M397.113 87.6958C399.958 89.1028 403.236 89.8023 406.958 89.8023C409.548 89.8023 412.212 89.3174 414.95 88.3476C417.696 87.3778 420.081 86.0582 422.122 84.3889V81.4795C420.007 83.117 417.671 84.4207 415.13 85.4143C412.581 86.4 409.859 86.8929 406.958 86.8929C403.827 86.8929 401.089 86.3205 398.761 85.1838C396.425 84.0471 394.613 82.4493 393.326 80.3984C392.105 78.4588 391.482 76.1932 391.416 73.6177H423.13C423.13 70.2393 422.409 67.2583 420.958 64.6987C419.507 62.1311 417.491 60.1279 414.901 58.6811C412.31 57.2344 409.318 56.519 405.909 56.519C402.384 56.519 399.285 57.2264 396.621 58.6255C393.957 60.0325 391.867 61.9801 390.359 64.4682C388.851 66.9563 388.097 69.8577 388.097 73.1646C388.097 76.4317 388.892 79.3173 390.474 81.8292C392.056 84.3332 394.269 86.2888 397.113 87.6958ZM393.171 65.9229C394.367 63.872 396.048 62.2742 398.228 61.1374C400.4 60.0007 402.958 59.4284 405.9 59.4284C408.605 59.4284 410.982 59.9689 413.04 61.05C415.097 62.1311 416.712 63.6653 417.892 65.6367C418.81 67.1788 419.392 68.9277 419.663 70.8832H391.539C391.785 69.0469 392.318 67.3855 393.171 65.9229Z" fill="white"/>
<path d="M424.876 59.9927H439.745V89.1187H442.918V59.9927H457.795V57.2026H424.876V59.9927Z" fill="white"/>
<path d="M466.91 82.8548C468.442 84.8659 470.401 86.4955 472.844 87.6958C475.705 89.1028 479.016 89.8024 482.779 89.8024C486.541 89.8024 489.853 89.1028 492.713 87.6958C495.574 86.2888 497.812 84.3333 499.418 81.8214C501.025 79.3094 501.828 76.4239 501.828 73.1567C501.828 69.8499 501.025 66.9563 499.418 64.4603C497.812 61.9642 495.574 60.0246 492.713 58.6176C489.853 57.2106 486.541 56.5111 482.779 56.5111C479.016 56.5111 475.705 57.2106 472.844 58.6176C470.393 59.8179 468.434 61.4475 466.91 63.4428V57.1947H463.737V98.5227H466.91V82.8548ZM468.967 65.9229C470.262 63.872 472.09 62.2743 474.467 61.1375C476.836 60.0008 479.607 59.4284 482.787 59.4284C486 59.4284 488.779 60.0008 491.131 61.1375C493.484 62.2743 495.304 63.872 496.599 65.9229C497.894 67.9738 498.541 70.3904 498.541 73.1647C498.541 75.939 497.894 78.3555 496.599 80.4064C495.304 82.4573 493.484 84.0551 491.131 85.1918C488.779 86.3286 486 86.9009 482.787 86.9009C479.615 86.9009 476.836 86.3286 474.467 85.1918C472.098 84.0551 470.262 82.4573 468.967 80.4064C467.672 78.3555 467.024 75.939 467.024 73.1647C467.033 70.3825 467.672 67.9738 468.967 65.9229Z" fill="white"/>
<path d="M512.279 85.9787V57.2026H509.107V89.1187H513.222L539.378 60.3505V89.1187H542.55V57.2026H538.436L512.279 85.9787Z" fill="white"/>
<path d="M560.911 57.2026C558.714 57.2026 556.78 57.5921 555.091 58.3711C553.403 59.1501 552.1 60.2312 551.181 61.6223C550.263 63.0134 549.804 64.6351 549.804 66.4952C549.804 68.3156 550.263 69.9372 551.181 71.3442C552.1 72.7512 553.403 73.8403 555.091 74.6193C556.772 75.3983 558.714 75.7878 560.911 75.7878H560.969H561.723L549.337 89.1266H553.452L565.837 75.7878H577.551V89.1266H580.723V57.2026H560.911ZM560.911 72.9897C558.444 72.9897 556.501 72.3935 555.091 71.1932C553.681 69.9929 552.977 68.411 552.977 66.4316C552.977 64.492 553.681 62.934 555.091 61.7575C556.501 60.581 558.444 59.9927 560.911 59.9927H577.543V72.9897H560.911Z" fill="white"/>
<path d="M243.815 119.421C246.889 117.847 250.487 117.052 254.602 117.052C258.127 117.052 261.266 117.617 264.004 118.73C266.75 119.85 268.979 121.44 270.701 123.491C272.422 125.542 273.521 127.959 273.996 130.733H277.406C277.012 127.426 275.807 124.532 273.791 122.036C271.775 119.548 269.127 117.601 265.856 116.194C262.586 114.787 258.873 114.087 254.717 114.087C249.938 114.087 245.741 115.017 242.135 116.877C238.528 118.738 235.725 121.321 233.733 124.628C231.733 127.935 230.733 131.774 230.733 136.146C230.733 140.479 231.733 144.31 233.733 147.633C235.733 150.956 238.536 153.555 242.135 155.415C245.741 157.275 249.93 158.205 254.717 158.205C258.873 158.205 262.586 157.506 265.856 156.099C269.127 154.692 271.775 152.736 273.791 150.224C275.807 147.72 277.012 144.827 277.406 141.56H273.996C273.529 144.334 272.43 146.751 270.701 148.801C268.979 150.852 266.742 152.442 264.004 153.563C261.258 154.684 258.127 155.248 254.602 155.248C250.487 155.248 246.889 154.461 243.815 152.879C240.741 151.305 238.356 149.08 236.676 146.21C234.987 143.34 234.151 139.986 234.151 136.146C234.151 132.267 234.995 128.905 236.676 126.059C238.356 123.213 240.733 120.995 243.815 119.421Z" fill="white"/>
<path d="M305.464 154.437L289.218 125.605H284.571V157.53H287.628V129.063L303.85 157.53H307.03L323.252 129.008V157.53H326.309V125.605H321.661L305.464 154.437Z" fill="white"/>
<path d="M373.719 125.605H370.547V157.53H373.719V125.605Z" fill="white"/>
<path d="M360.138 138.602C358.334 137.768 356.22 137.346 353.793 137.346H338.801V125.605H335.629V157.53H353.793C356.22 157.53 358.343 157.108 360.138 156.274C361.941 155.439 363.343 154.262 364.343 152.736C365.343 151.218 365.843 149.445 365.843 147.434C365.843 145.423 365.343 143.65 364.343 142.132C363.343 140.614 361.941 139.437 360.138 138.602ZM360.195 152.744C358.629 154.072 356.515 154.739 353.851 154.739H338.801V140.145H353.851C356.515 140.145 358.629 140.796 360.195 142.108C361.761 143.42 362.548 145.192 362.548 147.442C362.548 149.644 361.769 151.409 360.195 152.744Z" fill="white"/>
<path d="M391.228 129.54C393.424 128.404 396.006 127.831 398.99 127.831C402.638 127.831 405.753 128.69 408.335 130.399C410.925 132.108 412.548 134.405 413.212 137.299H416.622C416.154 134.827 415.097 132.672 413.449 130.828C411.802 128.984 409.736 127.537 407.244 126.496C404.752 125.455 402.007 124.93 398.99 124.93C395.465 124.93 392.351 125.629 389.646 127.036C386.941 128.443 384.826 130.391 383.293 132.879C381.768 135.367 380.998 138.269 380.998 141.568C380.998 144.835 381.76 147.728 383.293 150.232C384.818 152.744 386.941 154.7 389.646 156.107C392.351 157.514 395.465 158.213 398.99 158.213C402.007 158.213 404.761 157.689 407.244 156.647C409.736 155.606 411.802 154.151 413.449 152.283C415.097 150.415 416.154 148.277 416.622 145.844H413.212C412.581 148.73 410.982 151.035 408.392 152.744C405.81 154.453 402.671 155.312 398.99 155.312C396.015 155.312 393.424 154.739 391.228 153.603C389.031 152.466 387.326 150.868 386.113 148.817C384.9 146.766 384.293 144.35 384.293 141.576C384.293 138.801 384.9 136.385 386.113 134.334C387.326 132.275 389.031 130.677 391.228 129.54Z" fill="white"/>
<path d="M492.968 127.028C490.107 125.621 486.796 124.922 483.033 124.922C479.271 124.922 475.959 125.621 473.099 127.028C470.238 128.435 468 130.383 466.394 132.871C464.787 135.359 463.984 138.261 463.984 141.56C463.984 144.827 464.787 147.72 466.394 150.224C468 152.736 470.238 154.692 473.099 156.099C475.959 157.506 479.271 158.205 483.033 158.205C486.796 158.205 490.107 157.506 492.968 156.099C495.829 154.692 498.066 152.736 499.673 150.224C501.28 147.72 502.083 144.827 502.083 141.56C502.083 138.253 501.28 135.359 499.673 132.871C498.058 130.383 495.829 128.435 492.968 127.028ZM496.845 148.809C495.55 150.86 493.73 152.458 491.378 153.595C489.025 154.731 486.247 155.304 483.033 155.304C479.861 155.304 477.082 154.731 474.713 153.595C472.345 152.458 470.508 150.86 469.213 148.809C467.918 146.758 467.271 144.342 467.271 141.567C467.271 138.793 467.918 136.377 469.213 134.326C470.508 132.275 472.336 130.677 474.713 129.54C477.082 128.404 479.853 127.831 483.033 127.831C486.247 127.831 489.025 128.404 491.378 129.54C493.73 130.677 495.55 132.275 496.845 134.326C498.14 136.377 498.788 138.793 498.788 141.567C498.788 144.342 498.14 146.758 496.845 148.809Z" fill="white"/>
<path d="M538.346 142.967C537.001 142.005 535.198 141.393 533.001 141.075C534.387 140.677 535.583 140.113 536.551 139.342C538.272 137.974 539.141 136.114 539.141 133.753C539.141 131.17 538.28 129.167 536.551 127.736C534.829 126.313 532.354 125.598 529.141 125.598H508.271V141.472V157.522H529.96C533.567 157.522 536.346 156.782 538.305 155.296C540.264 153.817 541.247 151.703 541.247 148.968C541.256 146.353 540.288 144.35 538.346 142.967ZM534.05 129.771C535.247 130.685 535.846 132.013 535.846 133.761C535.846 135.661 535.19 137.172 533.878 138.292C532.567 139.413 530.755 139.978 528.444 139.978L511.46 139.898L511.509 128.404H528.854C531.124 128.396 532.854 128.857 534.05 129.771ZM535.993 153.253C534.682 154.239 532.747 154.731 530.206 154.731H511.509L511.46 142.625L528.034 142.704C531.288 142.704 533.755 143.237 535.444 144.302C537.124 145.367 537.969 146.925 537.969 148.976C537.96 150.844 537.305 152.267 535.993 153.253Z" fill="white"/>
<path d="M427.876 149.334C427.876 152.156 425.507 154.453 422.598 154.453H420.073C419.893 154.453 419.729 154.413 419.573 154.342V157.363C419.983 157.474 420.425 157.522 420.868 157.522H422.598C424.934 157.522 427.032 156.607 428.565 155.129C430.098 153.642 431.049 151.591 431.049 149.326V128.396H453.729V157.522H456.901V125.598H427.868V149.334H427.876Z" fill="white"/>
</svg>
