<svg width="40" height="40" viewBox="0 0 40 40" fill="none" xmlns="http://www.w3.org/2000/svg">
<path d="M25.1216 3.33301H14.8966C5.55325 3.33301 3.33325 5.55467 3.33325 14.878V25.1047C3.33325 34.4447 5.53825 36.6663 14.8783 36.6663H25.1049C34.4449 36.6663 36.6666 34.4613 36.6666 25.1213V14.8963C36.6666 5.55301 34.4616 3.33301 25.1216 3.33301ZM30.2433 27.1163H27.8116C26.8916 27.1163 26.6149 26.3713 24.9649 24.7213C23.5249 23.333 22.9166 23.1597 22.5516 23.1597C22.0483 23.1597 21.9099 23.298 21.9099 23.993V26.1797C21.9099 26.7713 21.7183 27.118 20.1733 27.118C18.6741 27.0162 17.2205 26.5602 15.9318 25.7875C14.6431 25.0148 13.556 23.9474 12.7599 22.673C10.8705 20.3239 9.55663 17.5654 8.92325 14.618C8.92325 14.253 9.06159 13.923 9.75659 13.923H12.1883C12.8133 13.923 13.0383 14.2013 13.2816 14.843C14.4616 18.3163 16.4749 21.3363 17.2916 21.3363C17.6049 21.3363 17.7416 21.198 17.7416 20.4163V16.8397C17.6383 15.208 16.7716 15.0697 16.7716 14.4797C16.7827 14.3241 16.854 14.1789 16.9704 14.075C17.0868 13.9711 17.239 13.9165 17.3949 13.923H21.2149C21.7366 13.923 21.9099 14.183 21.9099 14.808V19.6347C21.9099 20.1563 22.1349 20.3297 22.2916 20.3297C22.6049 20.3297 22.8466 20.1563 23.4199 19.583C24.6513 18.0812 25.6575 16.4081 26.4066 14.6163C26.4836 14.4014 26.6286 14.2175 26.8196 14.0924C27.0106 13.9673 27.2371 13.9078 27.4649 13.923H29.8966C30.6249 13.923 30.7799 14.288 30.6249 14.808C29.7408 16.7888 28.6468 18.669 27.3616 20.4163C27.0999 20.8163 26.9949 21.0247 27.3616 21.493C27.6033 21.858 28.4549 22.5697 29.0283 23.2463C29.8611 24.0777 30.5529 25.0392 31.0766 26.093C31.2849 26.7697 30.9366 27.1163 30.2433 27.1163Z" fill="url(#paint0_linear_87_290)"/>
<defs>
<linearGradient id="paint0_linear_87_290" x1="3.33325" y1="19.9997" x2="36.6666" y2="19.9997" gradientUnits="userSpaceOnUse">
<stop stop-color="#80A87B"/>
<stop offset="1" stop-color="#A1B16A"/>
</linearGradient>
</defs>
</svg>
